<svg width="96" height="76" viewBox="0 0 96 76" fill="none" xmlns="http://www.w3.org/2000/svg">
<g clip-path="url(#clip0_2159_763)">
<path d="M67.4601 27.9233C69.6198 21.2549 71.7818 14.5888 73.9368 7.91801C75.7795 2.21864 81.9001 -1.17198 87.5313 0.39558C93.2958 1.99997 97.1166 7.9111 95.7082 13.4839C94.7226 17.3763 93.3303 21.1651 92.0942 24.9954C89.0868 34.3294 86.0632 43.6588 83.0489 52.9904C81.436 57.9831 79.8599 62.9896 78.2057 67.9708C76.4618 73.2259 71.9472 76.2437 66.4032 75.949C66.1735 75.9375 65.9437 75.9237 65.7163 75.9099C63.4234 75.4288 61.39 74.4114 59.6026 72.8945C58.1321 71.1382 56.8432 69.2829 56.4044 66.9672C55.9954 64.9876 56.0184 63.0311 56.6686 61.0975C57.5302 58.5287 58.3964 55.9621 59.2304 53.3817C60.5193 49.3926 61.7691 45.3897 63.058 41.4006C64.5101 36.9028 65.9897 32.4142 67.4601 27.9233ZM73.0385 64.5779C73.0546 61.4658 70.6353 58.9982 67.5497 58.9798C64.3929 58.9614 61.8794 61.3968 61.8404 64.5089C61.8036 67.5933 64.3079 70.1507 67.4188 70.2013C70.4906 70.252 73.0224 67.7199 73.0385 64.5779ZM84.8455 5.5425C81.6841 5.51258 79.2441 7.92491 79.2166 11.1084C79.1913 14.2159 81.6795 16.7203 84.818 16.7456C87.853 16.7686 90.4262 14.1652 90.4216 11.0761C90.417 8.04461 87.9242 5.57243 84.8455 5.5425Z" fill="#706F6F"/>
<path d="M56.4044 66.9674C56.8432 69.2831 58.1321 71.1384 59.6003 72.8924C59.0488 72.7819 58.6514 72.4021 58.2217 72.0913C56.1149 70.5744 54.0173 69.0483 51.9242 67.5153C47.1476 64.0257 42.4055 60.4877 37.5876 57.0603C35.8231 55.8058 34.2034 54.3119 32.1861 53.428C30.2263 51.5911 27.9288 50.2031 25.7852 48.6102C22.2562 45.9861 18.6537 43.461 15.1407 40.8162C11.166 37.8215 9.74385 32.6676 11.4417 27.8177C12.9466 23.5178 17.3625 20.5346 22.1183 20.5254C24.6732 20.5208 26.911 21.3679 28.942 22.8457C34.3251 26.7588 39.699 30.6834 45.0776 34.6035C45.2591 34.737 45.4337 34.905 45.6933 34.8176L45.6818 34.7991C45.6611 34.9856 45.7852 35.0777 45.9162 35.1674C46.0494 35.4828 46.2057 35.7912 46.3113 36.1158C47.3406 39.3016 48.3607 42.4896 49.3854 45.6777C50.8352 50.1801 52.2734 54.6848 53.7461 59.1803C54.6008 61.7837 55.5152 64.3709 56.4044 66.9674ZM21.861 26.112C18.7938 26.112 16.324 28.5819 16.3286 31.6479C16.3309 34.7945 18.8237 37.2713 21.9437 37.2299C24.965 37.1908 27.4854 34.6334 27.4762 31.6157C27.467 28.6141 24.9167 26.112 21.861 26.112Z" fill="#3C3C3B"/>
<path d="M56.4044 66.9673C55.5175 64.3708 54.6031 61.7858 53.7484 59.1779C52.2757 54.6847 50.8375 50.1776 49.3877 45.6752C48.3607 42.4895 47.3429 39.2991 46.3136 36.1134C46.2079 35.7888 46.0517 35.4804 45.9184 35.165C45.8955 35.0062 45.9276 34.8128 45.6841 34.7967L45.6956 34.8151C45.8679 34.0532 45.452 33.4133 45.2361 32.7435C43.3314 26.8024 41.3785 20.8752 39.4831 14.9295C38.1183 10.6504 38.973 6.76716 42.031 3.53076C45.0017 0.386445 48.7904 -0.665498 52.9535 0.40486C57.1166 1.47522 59.7496 4.26505 61.0661 8.39917C63.1407 14.9249 65.3234 21.4161 67.4601 27.9211C65.9897 32.412 64.5101 36.9006 63.0557 41.3984C61.7668 45.3875 60.517 49.3904 59.228 53.3795C58.3963 55.9576 57.5279 58.5264 56.6663 61.0953C56.0184 63.0288 55.9931 64.9877 56.4044 66.9673ZM44.5606 11.3824C44.5583 14.5428 47.0373 17.0265 50.162 16.9919C53.2705 16.9574 55.7496 14.4921 55.7381 11.4422C55.7266 8.29788 53.2453 5.8234 50.1091 5.83031C47.0442 5.83721 44.5629 8.3186 44.5606 11.3824Z" fill="#575756"/>
<path d="M32.1838 53.4282C34.2033 54.3121 35.8208 55.806 37.5853 57.0605C42.4055 60.488 47.1476 64.0259 51.9219 67.5155C54.0172 69.0462 56.1149 70.5747 58.2194 72.0916C58.6491 72.4 59.0465 72.7798 59.5979 72.8926C61.3854 74.4118 63.4187 75.4269 65.7117 75.9103C64.2573 75.9403 62.803 75.9978 61.3486 75.9978C44.6939 76.0024 28.0368 76.0047 11.382 75.9955C6.43998 75.9909 2.29064 73.0583 0.643309 68.457C-1.89776 61.365 3.41413 53.5732 10.9362 53.4835C18.0172 53.3983 25.1005 53.442 32.1838 53.4282ZM11.3222 59.1851C8.20678 59.1897 5.72315 61.6895 5.72315 64.827C5.72315 67.8976 8.30328 70.4181 11.4233 70.3928C14.4698 70.3675 16.9558 67.8539 16.9627 64.7901C16.9696 61.6964 14.44 59.1828 11.3222 59.1851Z" fill="black"/>
</g>
<defs>
<clipPath id="clip0_2159_763">
<rect width="96" height="76" fill="white"/>
</clipPath>
</defs>
</svg>
