<svg width="103" height="92" viewBox="0 0 103 92" fill="none" xmlns="http://www.w3.org/2000/svg">
<g clip-path="url(#clip0_2159_770)">
<path d="M0 46.8696C2.106 43.0216 4.02614 39.0782 6.00094 35.1648C8.6741 29.8682 11.3473 24.5717 14.0232 19.2765C14.6067 18.1225 15.0727 17.9616 16.2549 18.5454C18.5399 19.6721 20.8195 20.8083 23.0963 21.95C24.1664 22.4861 24.34 22.984 23.8097 24.0274C21.2664 29.0375 18.708 34.0408 16.1674 39.0536C14.1913 42.9534 12.2315 46.8614 10.2662 50.768C9.42439 52.4403 9.19479 52.5153 7.48375 51.6641C5.45292 50.6548 3.42618 49.6331 1.38715 48.6401C0.852787 48.3795 0.374461 48.074 0 47.6143C0 47.3647 0 47.1178 0 46.8696Z" fill="#878787"/>
<path d="M48.93 35.2436C48.93 40.2578 48.9314 45.272 48.9287 50.2848C48.9287 51.567 48.4954 51.9939 47.1944 51.9953C44.6743 51.9967 42.1542 51.9939 39.6355 51.9858C38.3577 51.9817 37.9682 51.6011 37.9668 50.3176C37.9559 40.2278 37.9504 30.138 37.949 20.0483C37.949 18.7934 38.3522 18.4142 39.6396 18.4142C42.1597 18.4114 44.6798 18.4114 47.1985 18.4142C48.5282 18.4155 48.9287 18.807 48.9287 20.1096C48.9328 25.1538 48.9314 30.198 48.93 35.2436Z" fill="#878787"/>
<path d="M27.501 18.0133C28.3975 18.192 29.4499 18.3352 30.4639 18.6176C32.179 19.0936 33.9447 19.2873 35.6749 19.6665C36.6206 19.8739 36.9363 20.3526 36.7559 21.2679C36.0139 25.0395 35.2677 28.8096 34.5174 32.5798C33.2847 38.7794 32.0465 44.9789 30.8138 51.1784C30.6293 52.1033 30.0785 52.5138 29.156 52.3324C26.5348 51.8168 23.9149 51.293 21.2992 50.7488C20.21 50.5223 19.9421 50.1254 20.1471 49.071C21.2281 43.5085 22.3201 37.9487 23.4134 32.3902C24.2566 28.1017 25.1053 23.8159 25.9553 19.5288C26.1111 18.7403 26.3025 17.9792 27.501 18.0133Z" fill="#878787"/>
<path d="M78.1352 92C77.9986 91.7681 77.7417 91.8036 77.5367 91.749C75.6575 91.2525 74.1542 90.2131 73.0568 88.6254C72.6892 88.0948 72.3366 87.5123 72.1644 86.9012C71.973 86.2206 71.6163 86.1183 70.9945 86.1265C68.5428 86.1592 66.4709 85.2767 64.8241 83.4489C63.6584 82.1544 63.0953 80.6008 62.8561 78.908C62.8028 78.5274 62.7482 78.1469 62.6799 77.7677C62.3095 75.7066 60.8185 74.4517 58.6168 74.3712C57.7982 74.3412 56.9782 74.389 56.1596 74.3562C55.7523 74.3398 55.617 74.5281 55.4954 74.8677C54.3009 78.1919 51.349 80.3116 48.0034 80.2666C44.6046 80.2216 41.7264 78.1373 40.5839 74.8609C40.4459 74.4667 40.2559 74.348 39.8555 74.3576C38.7868 74.3835 37.7153 74.3944 36.648 74.3535C36.141 74.333 35.9524 74.5294 35.7952 74.9837C34.6868 78.181 31.6556 80.3007 28.2882 80.2707C25.1613 80.242 22.249 78.2451 21.0764 75.3247C19.8943 72.3797 20.6145 69.0392 22.9105 66.8186C27.02 62.8424 33.8969 64.4465 35.7856 69.8385C35.9565 70.3269 36.1546 70.5205 36.6835 70.5001C37.7509 70.4578 38.8223 70.4728 39.891 70.4946C40.271 70.5028 40.4432 70.3732 40.5785 70.0145C41.8494 66.6617 44.267 64.7493 47.8845 64.6143C51.282 64.4874 54.275 66.558 55.4312 69.8085C55.6334 70.3773 55.8999 70.526 56.4479 70.496C57.3103 70.4483 58.1809 70.5137 59.0377 70.4319C61.0754 70.2368 62.3874 68.9451 62.7017 66.9331C62.8725 65.8392 62.9682 64.7193 63.4178 63.6949C64.7954 60.5508 67.2253 58.8403 70.6693 58.7326C73.4873 58.6439 76.3108 58.7012 79.1329 58.723C79.5962 58.7271 79.7848 58.5948 79.9379 58.146C81.2348 54.369 85.1789 52.1702 89.0547 53.0282C92.9429 53.8889 95.5955 57.5472 95.1896 61.4879C94.8152 65.1149 91.9548 67.9971 88.2648 68.4636C84.7033 68.9137 81.146 66.719 79.9693 63.2898C79.7875 62.7592 79.5593 62.6173 79.0208 62.6228C76.3586 62.6514 73.6964 62.6323 71.0355 62.6378C68.6521 62.6433 67.1132 63.95 66.8017 66.2839C66.5051 68.5031 65.9475 70.5969 64.2242 72.1901C64.0123 72.3866 64.0779 72.5257 64.2542 72.6907C65.9516 74.2744 66.5024 76.3477 66.7976 78.5424C67.0764 80.613 68.2011 81.7738 70.2593 82.1912C70.411 82.2226 70.5572 82.2826 70.7089 82.3194C71.5098 82.5159 71.8118 82.3522 72.0837 81.5788C73.296 78.1414 76.729 75.9903 80.3752 76.3832C83.9818 76.7733 86.8955 79.6732 87.2972 83.2743C87.7592 87.4182 84.9917 91.1243 80.8781 91.865C80.7688 91.8841 80.6485 91.8704 80.5911 91.9986C79.7739 92 78.9552 92 78.1352 92ZM32.2925 72.4398C32.2966 70.2505 30.5541 68.4977 28.3784 68.5018C26.2041 68.5072 24.4602 70.2627 24.4657 72.4438C24.4698 74.6113 26.2396 76.36 28.418 76.3491C30.5609 76.3382 32.2884 74.5949 32.2925 72.4398ZM51.9544 72.4261C51.953 70.2396 50.2051 68.4922 48.028 68.5004C45.8578 68.51 44.1194 70.2723 44.1276 72.4561C44.1358 74.6208 45.9152 76.3682 48.0923 76.3477C50.2338 76.33 51.9544 74.5813 51.9544 72.4261ZM79.5279 88.0689C81.7022 88.0607 83.4611 86.2888 83.4419 84.1254C83.4228 81.988 81.6776 80.2802 79.5074 80.2775C77.3084 80.2748 75.5523 82.0112 75.5605 84.1814C75.5673 86.342 77.3385 88.0784 79.5279 88.0689ZM87.3984 64.5734C89.5809 64.5611 91.2756 62.8588 91.2756 60.6804C91.2756 58.4802 89.5549 56.7806 87.33 56.7834C85.1653 56.7861 83.446 58.5116 83.4501 60.6777C83.4529 62.8792 85.183 64.5856 87.3984 64.5734Z" fill="#9D9D9C"/>
<path d="M97.1562 20.9504C98.5816 22.0525 99.977 23.1383 101.379 24.2159C103.493 25.8418 103.537 28.8249 101.49 30.5436C97.5813 33.8241 93.6754 37.1074 89.7887 40.411C86.6768 43.0559 82.2707 43.1064 79.1466 40.4792C75.622 37.5152 72.1056 34.5416 68.5865 31.5707C68.0521 31.1192 67.4932 30.6909 66.9971 30.2012C65.3271 28.5521 65.4856 25.7804 67.3292 24.325C68.6658 23.2692 70.0228 22.2394 71.3704 21.1973C71.4715 21.1195 71.5685 21.0377 71.6915 20.9381C71.1066 20.4443 70.5394 19.9642 69.9709 19.4854C69.0635 18.7188 68.1505 17.959 67.2472 17.187C65.3134 15.5352 65.3927 12.5575 67.4003 11.0079C71.3799 7.93475 75.3596 4.86295 79.3338 1.78296C80.9396 0.537598 82.7504 -0.0721249 84.7813 0.00971712C86.6385 0.084739 88.2525 0.788581 89.7108 1.92755C93.0864 4.56286 96.4839 7.16817 99.8718 9.78711C100.397 10.1922 100.924 10.5946 101.443 11.0066C103.519 12.6502 103.518 15.602 101.454 17.3179C100.088 18.4542 98.7347 19.6068 97.3749 20.7526C97.3052 20.8099 97.2396 20.874 97.1562 20.9504ZM94.9942 19.2822C95.2252 19.0871 95.4411 18.9043 95.6584 18.7215C97.0592 17.5403 98.4641 16.3631 99.8595 15.1737C100.574 14.5653 100.554 13.6937 99.828 13.1181C99.4167 12.7921 98.9985 12.4743 98.5844 12.1523C95.0366 9.41064 91.4806 6.67575 87.9409 3.92313C85.7693 2.23309 83.0771 2.22218 80.9164 3.91222C79.2272 5.23397 77.5216 6.53798 75.8256 7.85019C73.5529 9.60843 71.2788 11.3639 69.0115 13.1276C68.2927 13.6855 68.2708 14.538 68.9473 15.1437C69.263 15.426 69.5924 15.6934 69.9163 15.9662C73.5638 19.0407 77.2155 22.1125 80.859 25.1925C82.9267 26.9398 85.891 26.9576 87.9587 25.2171C89.0083 24.3332 90.0593 23.4493 91.1075 22.5654C91.7047 22.0621 92.2992 21.556 92.9401 21.0145C92.8759 20.9776 92.8335 20.9599 92.798 20.9326C91.0774 19.6054 89.3746 18.255 87.6307 16.9578C85.645 15.4792 82.9609 15.5679 81.0134 17.1052C80.0445 17.8704 79.0632 18.6165 78.0751 19.3817C77.3863 18.7993 76.6989 18.2196 76.0074 17.6344C76.0361 17.5976 76.0484 17.573 76.0689 17.558C77.2961 16.6155 78.4988 15.6402 79.7561 14.7386C82.4771 12.7866 86.1711 12.7402 88.9372 14.6403C90.1344 15.4629 91.2578 16.3959 92.4112 17.2811C93.2695 17.9427 94.125 18.6097 94.9942 19.2822ZM73.7825 22.6991C73.7019 22.7577 73.6335 22.8041 73.5679 22.8546C72.0592 24.0194 70.5476 25.183 69.043 26.3533C68.2735 26.9521 68.253 27.8005 68.9965 28.4416C69.8411 29.1687 70.698 29.8821 71.5508 30.6009C74.6694 33.2321 77.784 35.8688 80.9082 38.4946C82.9568 40.216 85.9251 40.1942 87.9669 38.4673C89.9294 36.8073 91.8974 35.1554 93.8626 33.4981C95.8484 31.8231 97.8368 30.1508 99.8171 28.4703C100.595 27.8101 100.58 26.9712 99.7829 26.3479C98.5789 25.4053 97.3667 24.475 96.1572 23.5393C95.7964 23.2597 95.4343 22.9814 95.0762 22.7045C95.0079 22.7563 94.9628 22.7864 94.9204 22.8218C93.1957 24.2772 91.4683 25.7299 89.7477 27.1895C86.7 29.7757 82.391 29.8452 79.2791 27.3286C78.112 26.3847 76.9791 25.3971 75.8311 24.43C75.1464 23.8517 74.4658 23.276 73.7825 22.6991Z" fill="black"/>
</g>
<defs>
<clipPath id="clip0_2159_770">
<rect width="103" height="92" fill="white"/>
</clipPath>
</defs>
</svg>
