<svg width="76" height="80" viewBox="0 0 76 80" fill="none" xmlns="http://www.w3.org/2000/svg">
<path d="M11.9581 0.291946C12.4175 -0.175572 12.9993 0.0591938 13.519 0.0571873C30.5346 0.0451483 47.5523 0.0451404 64.5679 0.0491534C68.2896 0.05116 69.676 1.43767 69.686 5.13768C69.6941 7.52342 69.688 9.90715 69.688 12.6139C71.568 12.6139 73.2553 12.6139 74.9406 12.6139C73.2693 12.9049 71.5459 12.4795 69.702 12.9129C69.702 27.3036 69.702 41.6261 69.702 56.1773C50.3751 56.1773 31.2369 56.1773 12.1005 56.1773C12.0825 55.3567 12.0484 54.534 12.0484 53.7134C12.0444 36.7944 12.0484 19.8755 12.0423 2.95659C12.0444 2.06971 11.9882 1.18083 11.9581 0.291946ZM55.2023 43.6206C52.0424 33.1486 48.9286 22.8251 45.8368 12.5738C42.2455 12.5738 38.907 12.5738 35.4441 12.5738C32.4868 22.9294 29.5475 33.2289 26.5882 43.5945C29.2406 43.5945 31.7505 43.5945 34.3286 43.5945C34.9285 41.3673 35.5103 39.2143 36.0801 37.0974C39.2682 37.0974 42.2696 37.0974 45.3473 37.0974C45.9994 39.2885 46.6354 41.4295 47.2854 43.6186C49.8776 43.6206 52.4015 43.6206 55.2023 43.6206Z" fill="#7A7A79"/>
<path d="M12.1025 56.1791C31.2409 56.1791 50.3792 56.1791 69.7041 56.1791C69.7041 41.6279 69.7041 27.3054 69.7041 12.9147C71.5479 12.4813 73.2713 12.9047 74.9426 12.6157C75.3378 13.1735 75.1753 13.8136 75.1773 14.4156C75.1853 35.7187 75.1853 57.0219 75.1853 78.325C75.1853 78.7986 75.1853 79.2721 75.1853 79.6433C74.6777 80.1449 74.1701 79.9704 73.7127 79.9704C53.0295 79.9804 32.3463 79.9784 11.6631 79.9784C11.32 79.9784 10.975 79.9965 10.6319 79.9684C8.14004 79.7697 6.64534 78.2026 6.62728 75.6684C6.58916 70.3772 6.59318 65.086 6.57913 59.7949C8.23636 58.306 10.3751 57.5556 12.1025 56.1791ZM47.6004 73.7261C49.1433 73.7261 50.5096 73.8284 51.8518 73.7C53.4288 73.5475 54.9556 73.1502 55.9547 71.7116C57.1525 69.9839 57.2388 65.6178 56.0932 63.8239C55.4692 62.8468 54.5523 62.1726 53.4569 62.0221C51.5187 61.7552 49.5566 61.7974 47.6004 61.992C47.6004 65.9348 47.6004 69.689 47.6004 73.7261ZM45.9492 73.5455C44.7635 69.6348 43.5878 65.7542 42.4321 61.9438C40.9715 61.9438 39.7417 61.9438 38.4335 61.9438C37.318 65.8284 36.2125 69.681 35.095 73.5776C36.1704 73.8264 37.0431 73.8003 37.8597 73.6478C38.578 72.8653 38.1747 71.6855 38.9893 70.9852C40.0065 70.9852 41.0277 70.9852 41.9646 70.9852C42.729 71.7758 42.4 72.9315 43.1544 73.678C44.0111 73.7482 44.8899 73.8645 45.9492 73.5455ZM31.9491 70.0502C31.8187 70.2689 31.6481 70.4856 31.5478 70.7344C31.1626 71.6995 30.3781 71.8079 29.5214 71.6493C28.6788 71.4928 28.1792 70.8608 28.1411 70.0662C28.0648 68.4911 28.0628 66.9059 28.1671 65.3328C28.2113 64.6526 28.6467 64.0146 29.4472 63.9122C30.1976 63.8159 30.9921 63.7377 31.4455 64.5623C31.6401 64.9195 31.7324 65.3429 32.248 65.4512C32.886 65.4031 33.5782 65.6238 34.2243 65.2867C34.138 63.0033 33.2492 62.0984 30.6711 61.6529C27.6877 61.1372 25.3322 62.9953 25.2078 65.9809C25.1677 66.9401 25.246 67.9072 25.1818 68.8643C24.9089 72.9375 28.0628 74.4184 31.6782 73.6499C33.4879 73.2646 34.2142 72.1229 34.2363 70.0863C33.4979 69.9137 32.7496 69.996 31.9491 70.0502Z" fill="#575756"/>
<path d="M12.1026 56.1789C10.3751 57.5554 8.23638 58.3058 6.58116 59.7967C4.32003 60.6294 2.52033 62.3048 0.281275 63.2739C-0.15811 62.9047 0.048559 62.3991 0.048559 61.9717C0.0365211 44.3164 0.0505791 26.6611 0.0124589 9.0078C0.0104526 7.75172 0.395651 7.05144 1.50114 6.43143C5.02625 4.45501 8.3668 2.15756 11.9601 0.291504C11.9902 1.18039 12.0464 2.06927 12.0464 2.95816C12.0524 19.8771 12.0504 36.796 12.0524 53.7149C12.0504 54.5356 12.0845 55.3582 12.1026 56.1789Z" fill="#B7B7B6"/>
<path d="M37.5227 30.9232C38.576 26.5009 39.5531 22.3996 40.6425 17.8247C41.7641 22.4979 42.7632 26.6634 43.7844 30.9232C41.6818 30.9232 39.6634 30.9232 37.5227 30.9232Z" fill="#7A7A79"/>
<path d="M50.7563 64.0553C53.3124 64.0312 53.7177 64.4004 53.7478 66.6397C53.7578 67.3881 53.7638 68.1385 53.7457 68.887C53.6956 71.0801 53.174 71.5034 50.7563 71.2506C50.7563 68.909 50.7563 66.5594 50.7563 64.0553Z" fill="#575756"/>
<path d="M39.3123 68.7204C39.6333 67.2597 39.9242 65.9354 40.2473 64.4727C41.1862 65.7729 41.1561 67.2296 41.5594 68.6021C40.7809 68.9833 40.0807 68.7846 39.3123 68.7204Z" fill="#575756"/>
</svg>
