<svg width="57" height="80" viewBox="0 0 57 80" fill="none" xmlns="http://www.w3.org/2000/svg">
<path d="M56.6712 15.7222L51.5076 73.5659L28.3004 80.0003L5.15731 73.5753L0 15.7222H56.6712Z" fill="#CBCBCB"/>
<path d="M47.0877 69.8828L51.4998 20.4531H28.3348V75.0828L47.0877 69.8828Z" fill="#CECECE"/>
<path d="M11.8223 41.9102L12.4582 49.0055H28.3348L31.3861 45.4586L28.3348 41.9117L11.8223 41.9102Z" fill="#F8F8F8"/>
<path d="M28.3348 27.5469H28.3098H10.5443L11.1896 34.6422H28.3348L31.3861 31.0938L28.3348 27.5469Z" fill="#F8F8F8"/>
<path d="M28.3348 67.719L31.3861 63.9565L28.3348 60.3362L28.3036 60.344L20.4028 58.2097L19.8981 52.5503H16.0578H12.7753L13.769 63.6909L28.302 67.7253L28.3348 67.719Z" fill="#F8F8F8"/>
<path d="M13.3362 0H21.9292V3.59375H16.9296V7.1875H21.9292V10.7813H13.3362V0Z" fill="#010202"/>
<path d="M23.6478 0H32.2407V3.125H27.2412V3.75H32.2407V10.9375H23.6478V7.65625H28.6473V7.03125H23.6478V0Z" fill="#010202"/>
<path d="M33.9593 0H42.5522V3.125H37.5527V3.75H42.5522V10.9375H33.9593V7.65625H38.9588V7.03125H33.9593V0Z" fill="#010202"/>
<path d="M37.0465 49.0046L36.2231 58.2062L28.3098 60.3421V67.7233L42.8537 63.6921L42.96 62.4937L44.627 43.814L44.8005 41.9093L46.0816 27.5483H28.3098V34.6437H38.3073L37.6621 41.9093H28.3098V49.0046H37.0465Z" fill="white"/>
</svg>
