<svg width="54" height="80" viewBox="0 0 54 80" fill="none" xmlns="http://www.w3.org/2000/svg">
<path d="M26.8511 40.001C26.8511 32.6368 32.821 26.668 40.1829 26.668C47.5448 26.668 53.5147 32.6384 53.5147 40.001C53.5147 47.3652 47.5448 53.3341 40.1829 53.3341C32.821 53.3341 26.8511 47.3652 26.8511 40.001Z" fill="#B2B2B2"/>
<path d="M0.187439 66.6672C0.187439 59.303 6.15575 53.3342 13.5193 53.3342L20.6234 49.5825L26.851 53.3342V66.6672C26.851 74.0314 20.8812 80.0003 13.5193 80.0003C6.15575 80.0019 0.187439 74.0314 0.187439 66.6672Z" fill="#C5C5C5"/>
<path d="M26.8511 0L19.5969 12.6049L26.8511 26.6677H39.997C47.3605 26.6677 53.3288 20.6973 53.3288 13.3346C53.3288 5.97199 47.3589 0.00156257 39.997 0.00156257H26.8511V0Z" fill="#646363"/>
<path d="M0 13.3331C0 20.6973 5.96828 26.6661 13.3318 26.6661L20.4047 29.3975L26.8511 26.6661V0H13.3318C5.96828 0 0 5.96887 0 13.3331Z" fill="#282727"/>
<path d="M0.187439 40.0007C0.187439 47.3649 6.15575 53.3337 13.5193 53.3337H26.851V26.666H13.5193C6.15575 26.666 0.187439 32.6364 0.187439 40.0007Z" fill="#DADADA"/>
</svg>
