<svg width="80" height="80" viewBox="0 0 80 80" fill="none" xmlns="http://www.w3.org/2000/svg">
<path d="M39.0844 0C39.6418 0 40.1993 0 40.7567 0C42.5589 0.471483 43.7848 1.7476 45.0421 3.00908C55.9433 13.9286 66.857 24.8335 77.7665 35.7446C78.062 36.0401 78.3595 36.3356 78.632 36.6499C80.5033 38.8208 80.4677 41.6916 78.4455 43.7179C66.8842 55.3059 55.3104 66.8813 43.7198 78.44C41.6012 80.5522 38.5647 80.4999 36.4336 78.4023C34.6712 76.6693 32.913 74.9301 31.1653 73.1825C21.7792 63.8031 12.4037 54.4133 3.00926 45.0423C1.74773 43.7829 0.471503 42.5571 0 40.755C0 40.1976 0 39.6402 0 39.0828C0.458929 37.2681 1.77914 36.0736 3.03857 34.8184C10.2892 27.5849 17.5252 20.3387 24.7675 13.0988C24.9812 12.8851 25.216 12.6923 25.4716 12.4618C25.7482 12.7154 25.985 12.9123 26.203 13.1302C28.7428 15.6658 31.2638 18.2181 33.8287 20.7243C34.3275 21.2104 34.3904 21.6337 34.2269 22.2707C33.5438 24.9257 34.6083 27.5932 36.9742 29.014C37.6112 29.3975 37.802 29.7935 37.7978 30.4934C37.7747 37.0418 37.7663 43.5901 37.8061 50.1385C37.8124 51.0081 37.5651 51.4901 36.817 51.9553C34.4972 53.397 33.5102 56.1399 34.2395 58.7761C34.9478 61.343 37.2906 63.1598 40.019 63.2583C42.6867 63.3547 45.1259 61.6699 46.0333 59.1009C46.9239 56.5779 46.0711 53.6987 43.8644 52.1438C43.2127 51.6828 42.9759 51.2156 42.9801 50.436C43.0073 44.0616 42.9947 37.6872 42.9968 31.3127C42.9968 30.9837 43.0367 30.6548 43.0681 30.1267C43.4684 30.4913 43.724 30.7092 43.9587 30.9439C45.7106 32.6894 47.4059 34.4957 49.2249 36.17C50.4277 37.2764 51.0354 38.2949 50.7672 40.1242C50.2622 43.5797 53.4349 46.7166 56.9449 46.6432C60.6101 46.5678 63.3762 43.3387 62.9676 39.6129C62.5904 36.1721 59.1621 33.666 55.7442 34.37C55.0506 34.5125 54.5896 34.3595 54.095 33.8524C51.9303 31.6333 49.7592 29.4184 47.5128 27.2831C46.5509 26.3695 45.7903 25.525 46.3854 24.1064C46.4713 23.901 46.4126 23.6223 46.3896 23.3813C45.9726 19.1694 42.1335 16.9482 38.8854 17.6921C38.5165 17.7759 37.9381 17.5831 37.6594 17.3107C34.9436 14.6578 32.2696 11.9631 29.5852 9.27669C29.4427 9.13419 29.3233 8.96863 29.1242 8.73394C31.0416 6.81658 32.9423 4.93904 34.8178 3.03425C36.0668 1.77067 37.2697 0.45891 39.0844 0Z" fill="#333332"/>
</svg>
