<svg width="83" height="80" viewBox="0 0 83 80" fill="none" xmlns="http://www.w3.org/2000/svg">
<path d="M41.5008 0C18.5716 0 0 18.3649 0 41.0145C0 59.1398 11.8893 74.5097 28.3762 79.9292C30.4512 80.3156 31.2115 79.0455 31.2115 77.9563C31.2115 76.983 31.1775 74.4021 31.1596 70.9831C19.6156 73.4564 17.1807 65.4805 17.1807 65.4805C15.2921 60.7474 12.5637 59.4805 12.5637 59.4805C8.80433 56.9387 12.8539 56.9909 12.8539 56.9909C17.0218 57.2762 19.2103 61.217 19.2103 61.217C22.9114 67.4875 28.9257 65.6761 31.2974 64.6294C31.6703 61.9751 32.7403 60.1702 33.9253 59.1447C24.7092 58.1192 15.0213 54.591 15.0213 38.8771C15.0213 34.4 16.6295 30.7414 19.293 27.8718C18.8261 26.8349 17.4255 22.6643 19.6561 17.0166C19.6561 17.0166 23.1318 15.9177 31.0689 21.2214C34.3889 20.31 37.9165 19.8584 41.4441 19.8372C44.9716 19.8584 48.4992 20.31 51.8193 21.2214C59.7044 15.9177 63.1801 17.0166 63.1801 17.0166C65.4108 22.6659 64.0101 26.8349 63.5951 27.8718C66.2408 30.7414 67.849 34.4 67.849 38.8771C67.849 54.6334 58.1481 58.1012 48.9142 59.1104C50.3667 60.3414 51.7155 62.8571 51.7155 66.7C51.7155 72.188 51.6636 76.5982 51.6636 77.9319C51.6636 79.0063 52.3899 80.2895 54.5168 79.8802C71.1204 74.4966 83 59.1153 83 41.0178C83.0016 18.3649 64.4203 0 41.5008 0Z" fill="#202020"/>
</svg>
