<svg width="57" height="80" viewBox="0 0 57 80" fill="none" xmlns="http://www.w3.org/2000/svg">
<path d="M5.28076 0H8.87417V3.5625H12.1864V0H15.7798V10.7813H12.1864V7.1875H8.90541V10.7813H5.28076V0ZM20.5293 3.59375H17.3577V0H27.3099V3.59375H24.1227V10.7813H20.5293V3.59375ZM28.8879 0H32.6532L34.9655 3.79688L37.2777 0H41.043V10.7813H37.4496V5.4375L34.9342 9.3125L32.4188 5.4375V10.7813H28.8879V0ZM42.8241 0H46.4175V7.21875H51.5108V10.7813H42.8241V0Z" fill="#010202"/>
<path d="M5.15576 73.5938L0 15.7188H56.6821L51.5264 73.5625L28.2942 80" fill="#282727"/>
<path d="M28.3411 75.0776V20.4683H51.5108L47.0893 69.8433L28.3411 75.0776Z" fill="#3C3C3B"/>
<path d="M10.5303 27.5469H28.3411L30.9893 31.0938L28.3411 34.6406H18.3108L18.967 41.9062H28.3411L30.9893 45.5859L28.3411 48.9844H12.4676L10.5303 27.5469ZM12.78 52.5469H19.9044L20.4043 58.2188L28.3411 60.3438L31.3299 63.8844L28.3411 67.75L13.7799 63.6875L12.78 52.5469Z" fill="#F8F8F8"/>
<path d="M46.0894 27.5469H28.3098V34.6406H45.4332L46.0894 27.5469ZM44.7926 41.9062H28.3098V49H37.059L36.231 58.2188L28.3098 60.3438V67.7188L42.8397 63.6875L44.7926 41.9062Z" fill="white"/>
</svg>
