<svg width="83" height="80" viewBox="0 0 83 80" fill="none" xmlns="http://www.w3.org/2000/svg">
<path d="M33.3302 26.8029H33.2613L29.0229 41.0593H37.7064L33.3302 26.8029ZM33.3302 26.8029H33.2613L29.0229 41.0593H37.7064L33.3302 26.8029ZM67.5145 0H14.5291C6.49459 0 0 6.49518 0 14.5304V65.4695C0 73.5048 6.49459 80 14.5291 80H67.5145C75.549 80 82.0435 73.5048 82.0435 65.4695V14.5304C82.0435 6.49518 75.549 0 67.5145 0ZM50.2517 56.5128H43.1065C42.8677 56.5465 42.629 56.3766 42.5601 56.1362L39.7575 48H27.0407L24.4416 56.0336C24.3743 56.3413 24.1003 56.5465 23.7926 56.5128H17.3653C16.9904 56.5128 16.8878 56.3077 16.9904 55.8974L27.9974 24.2051C28.0999 23.8638 28.2025 23.4872 28.3387 23.0769C28.4765 22.359 28.5438 21.6074 28.5438 20.8542C28.5101 20.6843 28.6463 20.5128 28.8178 20.4791H37.6711C37.9451 20.4791 38.0813 20.5817 38.1166 20.7516L50.593 55.9664C50.6955 56.3414 50.593 56.5128 50.2517 56.5128ZM61.874 56C61.874 56.3766 61.7377 56.5465 61.4301 56.5465H54.7304C54.3875 56.5465 54.2176 56.3413 54.2176 56V29.6747C54.2176 29.3333 54.3538 29.1971 54.6615 29.1971H61.4301C61.7377 29.1971 61.874 29.367 61.874 29.6747V56ZM61.1561 25.1282C60.3709 25.9487 59.2075 26.3926 58.0458 26.3253C56.9177 26.359 55.8232 25.915 55.0028 25.1282C54.2176 24.274 53.8074 23.1458 53.8411 21.9824C53.8074 20.8205 54.2513 19.726 55.0717 18.9407C55.8922 18.1538 56.9866 17.7436 58.1147 17.7436C59.4479 17.7436 60.4735 18.1538 61.225 18.9407C61.9765 19.7612 62.3867 20.8542 62.3531 21.9824C62.3867 23.1458 61.9765 24.274 61.1561 25.1282ZM33.2613 26.8029L29.0229 41.0593H37.7064L33.3302 26.8029H33.2613Z" fill="#3D3D3D"/>
</svg>
