<svg width="83" height="80" viewBox="0 0 83 80" fill="none" xmlns="http://www.w3.org/2000/svg">
<path d="M67.5144 0H14.5291C6.49459 0 0 6.49518 0 14.5304V65.4695C0 73.5048 6.49459 80 14.5291 80H67.5144C75.5489 80 82.0435 73.5048 82.0435 65.4695V14.5304C82.0435 6.49518 75.5489 0 67.5144 0ZM29.8097 56C29.8097 56.3766 29.6382 56.5465 29.3305 56.5465H22.6308C22.3232 56.5465 22.1854 56.3766 22.1854 56V20.923C22.1854 20.6154 22.3569 20.4791 22.6645 20.4791H29.3305C29.5357 20.4439 29.7408 20.5817 29.7744 20.8205C29.8097 20.8542 29.8097 20.8894 29.8097 20.923V56ZM60.3356 54.9743C58.5586 55.7259 56.6789 56.274 54.764 56.6154C53.0543 56.923 51.2772 57.0946 49.5001 57.0946C46.9699 57.1282 44.4397 56.6154 42.1498 55.5561C39.9962 54.5641 38.2191 52.9231 36.9885 50.9054C35.7226 48.8205 35.1073 46.2228 35.1073 43.1106C35.0736 40.5817 35.7226 38.0849 36.9885 35.8974C38.2864 33.6747 40.1677 31.8285 42.4239 30.5977C44.8163 29.2644 47.6878 28.6154 51.0721 28.6154C51.2436 28.6154 51.4823 28.6154 51.79 28.649C52.0977 28.6843 52.4389 28.6843 52.8492 28.7179V17.915C52.8492 17.6746 52.9517 17.5385 53.1921 17.5385H60.1305C60.302 17.5048 60.4382 17.641 60.4735 17.7772C60.4735 17.8125 60.4735 17.8461 60.4735 17.8461V50.3926C60.4735 51.008 60.5071 51.6923 60.5407 52.4439C60.6096 53.1619 60.6433 53.8461 60.6786 54.4279C60.6786 54.6667 60.576 54.8718 60.3356 54.9743ZM50.7981 34.9744C49.4649 34.9744 48.1317 35.2484 46.9363 35.8638C45.7729 36.4439 44.7826 37.2997 44.0295 38.3926C43.2779 39.4872 42.9014 40.9567 42.9014 42.7356C42.8677 43.9311 43.0728 45.1282 43.4831 46.2564C43.8244 47.1795 44.3372 48 45.0214 48.6843C45.6704 49.2997 46.4572 49.7772 47.3465 50.0513C48.2695 50.359 49.2261 50.4952 50.1828 50.4952C50.6955 50.4952 51.1746 50.4615 51.6185 50.4279C52.064 50.4615 52.4742 50.3926 52.8492 50.2564V35.2131C52.5415 35.1458 52.2338 35.0769 51.9262 35.0433C51.5512 35.008 51.1746 34.9744 50.7981 34.9744Z" fill="#3D3D3D"/>
</svg>
