<svg width="80" height="80" viewBox="0 0 80 80" fill="none" xmlns="http://www.w3.org/2000/svg">
<path d="M0 0H79.9924V80H0V0Z" fill="#878787"/>
<path d="M53.734 62.5C55.3447 65.1313 57.4414 67.0656 61.1489 67.0656C64.2626 67.0656 66.2531 65.5094 66.2531 63.3578C66.2531 60.7797 64.2095 59.8672 60.7802 58.3672L58.9007 57.5609C53.4762 55.25 49.8734 52.3547 49.8734 46.2344C49.8734 40.5969 54.1683 36.3047 60.8817 36.3047C65.6609 36.3047 69.0966 37.9687 71.5729 42.3234L65.7203 46.0828C64.4314 43.7719 63.0409 42.8609 60.8833 42.8609C58.6819 42.8609 57.2867 44.2578 57.2867 46.0828C57.2867 48.3375 58.6835 49.2516 61.9082 50.6484L63.7877 51.4531C70.1746 54.1922 73.7805 56.9844 73.7805 63.2625C73.7805 70.0313 68.4638 73.7391 61.3239 73.7391C54.3433 73.7391 49.8328 70.4125 47.6267 66.0516L53.734 62.5ZM27.1802 63.1516C28.3614 65.2469 29.4347 67.0188 32.0173 67.0188C34.4873 67.0188 36.045 66.0531 36.045 62.2953V36.7328H43.5615V62.3969C43.5615 70.1813 38.9978 73.7234 32.3375 73.7234C26.3194 73.7234 22.8338 70.6078 21.0605 66.8563L27.1802 63.1516Z" fill="#010202"/>
</svg>
