<svg width="80" height="80" viewBox="0 0 80 80" fill="none" xmlns="http://www.w3.org/2000/svg">
<path d="M71.3487 80H8.64374C3.8701 80 0 76.1295 0 71.3555V8.64454C0 3.87045 3.8701 0 8.64374 0H71.3487C76.1223 0 79.9924 3.87045 79.9924 8.64454V71.3555C79.9924 76.1295 76.1223 80 71.3487 80Z" fill="#CFCFCE"/>
<path d="M60.4438 17.6357H38.9569C38.9569 22.992 43.292 27.3275 48.6478 27.3275H52.6006V31.1527C52.6006 36.5089 56.9357 40.8445 62.2914 40.8445V19.4851C62.2914 18.4645 61.4628 17.6357 60.4438 17.6357Z" fill="white"/>
<path d="M49.7963 28.3477H28.3094C28.3094 33.7039 32.6446 38.0394 38.0003 38.0394H41.9531V41.8662C41.9531 47.2224 46.2882 51.558 51.6439 51.558V30.1971C51.6455 29.1764 50.8153 28.3477 49.7963 28.3477Z" fill="white"/>
<path d="M39.1488 39.0605H17.662C17.662 44.4168 21.9971 48.7523 27.3529 48.7523H31.3057V52.5791C31.3057 57.9353 35.6408 62.2709 40.9965 62.2709V40.91C40.9981 39.8893 40.1679 39.0605 39.1488 39.0605Z" fill="white"/>
</svg>
