<svg width="59" height="80" viewBox="0 0 59 80" fill="none" xmlns="http://www.w3.org/2000/svg">
<path d="M21.613 53.1607C19.6466 52.2924 17.5887 51.8249 15.687 50.8863C5.71882 45.9658 0.377052 37.9677 0.111041 26.8072C-0.0848724 18.6105 0.161357 10.403 0.0103777 2.20275C-0.0291644 0.0655876 0.765273 -0.096869 2.48176 0.0330935C15.3455 0.996982 26.1603 12.0294 26.5809 24.9931C26.8254 32.54 26.6582 40.0994 26.669 47.6535C26.6762 53.157 26.6708 53.1968 32.0413 53.1516C37.7354 53.1047 42.946 54.6588 47.576 57.944C54.4635 62.832 58.2488 69.5522 58.9551 78.0124C59.0468 79.1044 59.1528 79.9745 57.5658 79.9636C46.7492 79.8896 35.92 80.1947 25.1196 79.7633C12.184 79.247 1.90662 69.3627 0.209905 56.5559C-0.239437 53.1625 -0.239434 53.1625 3.04436 53.1607C9.23271 53.1607 15.4228 53.1607 21.613 53.1607Z" fill="#7A7A79"/>
</svg>
