<svg width="92" height="80" viewBox="0 0 92 80" fill="none" xmlns="http://www.w3.org/2000/svg">
<path d="M45.5816 5.81836H64.7014V34.0868H45.5816V5.81836Z" fill="white"/>
<path d="M64.7014 34.9189H48.075C47.6144 34.9189 47.2439 34.5483 47.2439 34.0876C47.2439 33.6269 47.6144 33.2564 48.075 33.2564H63.8702V6.65369H48.075C47.6144 6.65369 47.2439 6.28317 47.2439 5.82245C47.2439 5.36173 47.6144 4.99121 48.075 4.99121H64.7014C65.162 4.99121 65.5325 5.36173 65.5325 5.82245V34.0909C65.5325 34.5451 65.162 34.9189 64.7014 34.9189Z" fill="#1E1E1E"/>
<path d="M48.9062 0L25.6306 4.3366V35.5691L48.9062 39.9057V0Z" fill="#1E1E1E"/>
<path opacity="0.2" d="M25.6306 4.3366V4.75221L48.9062 0.41561V0L25.6306 4.3366Z" fill="white"/>
<path d="M47.2439 8.3125H53.8931V11.6374H47.2439V8.3125Z" fill="#1E1E1E"/>
<path d="M55.5554 8.3125H62.2047V11.6374H55.5554V8.3125Z" fill="#1E1E1E"/>
<path d="M47.2439 13.3003H53.8931V16.6252H47.2439V13.3003Z" fill="#1E1E1E"/>
<path d="M55.5554 13.3003H62.2047V16.6252H55.5554V13.3003Z" fill="#1E1E1E"/>
<path d="M47.2439 18.2915H53.8931V21.6164H47.2439V18.2915Z" fill="#1E1E1E"/>
<path d="M55.5554 18.2915H62.2047V21.6164H55.5554V18.2915Z" fill="#1E1E1E"/>
<path d="M47.2439 23.2773H53.8931V26.6023H47.2439V23.2773Z" fill="#1E1E1E"/>
<path d="M55.5554 23.2773H62.2047V26.6023H55.5554V23.2773Z" fill="#1E1E1E"/>
<path d="M47.2439 28.2651H53.8931V31.5901H47.2439V28.2651Z" fill="#1E1E1E"/>
<path d="M55.5554 28.2651H62.2047V31.5901H55.5554V28.2651Z" fill="#1E1E1E"/>
<path opacity="0.1" d="M25.6306 35.5689L48.9062 39.9055V39.4899L25.6306 35.1533V35.5689Z" fill="#010202"/>
<path d="M37.8628 20.785L41.6835 13.9096L41.6352 13.8838L38.7326 14.09L36.4389 18.2204L34.3191 14.4057L31.5775 14.6023L35.0117 20.7882L31.5775 26.9741L34.3191 27.1707L36.4389 23.356L38.7326 27.4864L41.6352 27.6926L41.6835 27.6668L37.8628 20.785Z" fill="white"/>
<path opacity="0.05" d="M48.9062 0L25.6306 4.3366V35.5691L48.9062 39.9057V0Z" fill="url(#paint0_linear_2150_711)"/>
<path d="M73.6636 74.5993C73.6636 76.3552 73.6636 77.9565 73.6636 79.7027C65.6162 78.3463 57.6558 77.0028 49.6599 75.6528C49.6599 65.3687 49.6599 55.133 49.6599 44.8231C57.6171 43.4796 65.5614 42.1361 73.641 40.77C73.641 42.1683 73.641 43.5182 73.641 44.9938C74.2241 44.9938 74.6816 44.9938 75.139 44.9938C80.0261 44.9938 84.9164 44.9874 89.8034 44.9938C91.3465 44.9971 91.7332 45.3804 91.7332 46.9044C91.7364 55.5711 91.7363 64.2347 91.7363 72.9014C91.7363 74.1225 91.2531 74.5929 89.9291 74.5961C84.9518 74.6058 79.9745 74.5993 75.0005 74.5993C74.5946 74.5993 74.1887 74.5993 73.6636 74.5993ZM73.6571 52.446C75.0327 51.3376 76.3149 50.5225 78.0481 50.6321C78.0481 52.4782 78.0481 54.2534 78.0481 56.1317C79.9616 56.1317 81.7915 56.1317 83.689 56.1317C83.6535 58.1905 82.7773 59.7015 81.1665 60.6874C78.541 62.3015 76.0475 61.8215 73.6507 59.7305C73.6507 60.9999 73.6926 62.076 73.6378 63.1457C73.5959 63.9092 73.8407 64.1541 74.6203 64.1412C77.7227 64.0961 80.8282 64.1187 83.9306 64.1154C84.8262 64.1154 85.7218 64.1154 86.598 64.1154C86.598 64.6889 86.598 65.1142 86.598 65.6297C86.2501 65.6297 85.9634 65.6297 85.6767 65.6297C82.3392 65.6297 78.9984 65.6297 75.6609 65.6297C73.5895 65.6297 73.6088 65.6297 73.6442 67.6659C73.6539 68.2265 73.8601 68.3554 74.3723 68.3489C76.1281 68.3264 77.887 68.3393 79.6427 68.3393C81.9494 68.3393 84.2527 68.3393 86.5883 68.3393C86.5883 68.8805 86.5883 69.3252 86.5883 69.8729C82.2618 69.8729 78.003 69.8729 73.7087 69.8729C73.7087 71.0456 73.7087 72.112 73.7087 73.2171C79.2787 73.2171 84.794 73.2171 90.3189 73.2171C90.3189 64.2153 90.3189 55.278 90.3189 46.289C89.2751 46.289 88.3119 46.289 87.3454 46.289C83.0994 46.2858 78.8535 46.2987 74.6075 46.2729C73.9149 46.2697 73.6152 46.4404 73.6378 47.1976C73.6893 48.8665 73.6571 50.5354 73.6571 52.446ZM57.3433 53.7443C57.3433 58.1937 57.3433 62.5303 57.3433 66.941C57.7009 66.941 57.9908 66.9442 58.2775 66.941C60.0171 66.9184 59.7659 67.1536 59.7852 65.4718C59.7981 64.5182 59.7884 63.5645 59.7884 62.6656C60.7903 62.5303 61.673 62.4852 62.5171 62.2854C65.7708 61.5186 66.3217 56.5602 64.5176 54.7592C64.0666 54.3114 63.4191 53.8281 62.8328 53.7894C61.0319 53.6638 59.2182 53.7443 57.3433 53.7443Z" fill="#818181"/>
<path d="M84.4943 55.2579C82.6613 55.2579 80.8862 55.2579 79.0306 55.2579C79.0306 53.4666 79.0306 51.6785 79.0306 49.8871C81.8785 49.6358 84.7231 52.3808 84.4943 55.2579Z" fill="#818181"/>
<path d="M59.8464 59.9144C59.8464 58.6514 59.8464 57.4594 59.8464 56.2802C60.8773 55.9515 61.7052 56.1223 62.1852 56.7441C62.6652 57.3659 62.6846 58.616 62.1949 59.3119C61.6086 60.1335 60.7871 60.1045 59.8464 59.9144Z" fill="#818181"/>
<path d="M0 76.1052C0 65.6536 0 55.1987 0 44.7471C0.289938 44.702 0.57986 44.6569 0.869798 44.6085C1.74928 44.4636 2.63196 44.3186 3.51144 44.1704C4.39736 44.0222 5.28329 43.8707 6.17243 43.7258C7.05191 43.5808 7.93463 43.4358 8.81411 43.2876C9.85144 43.1136 10.8887 42.9396 11.9261 42.7657C12.9634 42.5949 14.004 42.4242 15.0413 42.2534C16.3074 42.044 17.5702 41.8281 18.8363 41.6187C20.2892 41.3771 21.7421 41.1322 23.195 40.897C23.34 40.8744 23.4882 40.81 23.6589 40.8648C23.6621 40.9421 23.6718 41.0162 23.6718 41.0936C23.6718 42.1922 23.6718 43.2908 23.6718 44.3895C23.6718 44.47 23.6815 44.5506 23.6847 44.6504C23.8006 44.6504 23.8941 44.6504 23.9875 44.6504C29.2451 44.6504 34.5026 44.6504 39.7601 44.6504C39.8987 44.6504 40.0404 44.6601 40.1789 44.6762C41.0713 44.7922 41.59 45.6041 41.5803 46.2678C41.561 47.5565 41.5739 48.8485 41.5739 50.1405C41.5739 58.2788 41.5706 66.4204 41.5803 74.5588C41.5803 75.1194 41.2131 75.8668 40.4302 76.1085C40.2241 76.1729 40.0146 76.1761 39.8052 76.1761C36.8801 76.1761 33.9549 76.1761 31.0266 76.1761C28.6813 76.1761 26.336 76.1761 23.994 76.1761C23.8941 76.1761 23.7942 76.1858 23.6686 76.1922C23.6686 76.2889 23.6686 76.363 23.6686 76.4403C23.6686 77.5454 23.6686 78.6505 23.6686 79.7556C23.6686 79.8361 23.6557 79.9135 23.6492 79.9972C23.5816 79.9972 23.5365 80.0037 23.4946 79.9972C22.86 79.8909 22.2253 79.7846 21.5875 79.6782C20.6307 79.5172 19.6739 79.3593 18.7171 79.2014C17.7603 79.0435 16.8035 78.8857 15.8467 78.7278C14.9479 78.5796 14.0491 78.4282 13.1471 78.28C12.3417 78.1447 11.5363 78.0126 10.7309 77.8772C9.93196 77.7452 9.13304 77.6098 8.3341 77.4777C7.52872 77.3424 6.72334 77.2103 5.91795 77.0782C5.03203 76.93 4.14289 76.7818 3.25696 76.6336C2.4387 76.4983 1.62043 76.3598 0.802158 76.2277C0.541214 76.1793 0.270609 76.1439 0 76.1052ZM37.3504 50.7172C37.2377 50.7236 37.1443 50.73 37.0476 50.73C32.7147 50.73 28.3849 50.73 24.0519 50.73C23.9746 50.73 23.8973 50.7268 23.8232 50.7333C23.7749 50.7365 23.7298 50.7558 23.6814 50.7687C23.6814 51.587 23.6814 52.3893 23.6814 53.2141C23.7845 53.2205 23.878 53.2302 23.9714 53.2302C26.3682 53.2302 28.7618 53.2302 31.1587 53.2302C33.1399 53.2302 35.1211 53.2302 37.0991 53.2302C37.1797 53.2302 37.2602 53.2399 37.3343 53.2431C37.3762 53.4686 37.3665 54.7992 37.3182 54.9635C37.2377 54.9635 37.1507 54.9635 37.0637 54.9635C32.7018 54.9635 28.3366 54.9635 23.9746 54.9635C23.8812 54.9635 23.7878 54.97 23.6847 54.9732C23.6847 55.798 23.6847 56.6067 23.6847 57.4347C23.7974 57.4379 23.8973 57.4476 23.9972 57.4476C28.343 57.4476 32.6857 57.4476 37.0315 57.4476C37.0959 57.4476 37.1604 57.4443 37.2216 57.4476C37.2634 57.4508 37.3053 57.4637 37.3408 57.4734C37.3794 57.7569 37.3665 59.0327 37.3182 59.1841C36.4194 59.1841 35.5142 59.1841 34.6089 59.1841C33.694 59.1841 32.7823 59.1841 31.8674 59.1841C30.9589 59.1841 30.0537 59.1841 29.1452 59.1841C28.2303 59.1841 27.3186 59.1841 26.4037 59.1841C25.4984 59.1874 24.5964 59.1777 23.6943 59.1906C23.6525 59.4129 23.6589 61.491 23.704 61.665C24.8316 61.665 25.9655 61.665 27.1027 61.665C28.2399 61.665 29.3771 61.665 30.5143 61.665C31.6516 61.665 32.7887 61.665 33.9259 61.665C35.0599 61.665 36.1971 61.665 37.3247 61.665C37.3762 61.8744 37.3698 63.2437 37.3182 63.4016C36.9123 63.4016 36.4967 63.4016 36.0844 63.4016C35.6752 63.4016 35.2661 63.4016 34.857 63.4016C34.4414 63.4016 34.0258 63.4016 33.6102 63.4016C33.1947 63.4016 32.7791 63.4016 32.3635 63.4016C31.9479 63.4016 31.5324 63.4016 31.1168 63.4016C30.7076 63.4016 30.2985 63.4016 29.8894 63.4016C29.4738 63.4016 29.0582 63.4016 28.6426 63.4016C28.227 63.4016 27.8115 63.4016 27.3959 63.4016C26.9803 63.4016 26.5647 63.4016 26.1492 63.4016C25.74 63.4016 25.3309 63.3983 24.9218 63.4016C24.5094 63.4048 24.097 63.3854 23.6879 63.4144C23.6428 63.6464 23.6525 65.8501 23.7008 66.008C23.7878 66.0112 23.8844 66.0209 23.9778 66.0209C25.434 66.0209 26.8901 66.0209 28.3463 66.0209C31.2456 66.0209 34.1482 66.0209 37.0476 66.0209C37.1411 66.0209 37.2344 66.0305 37.3375 66.0338C37.3375 66.6073 37.3375 67.1582 37.3375 67.7285C37.2312 67.7317 37.1378 67.7414 37.0444 67.7414C32.7179 67.7414 28.3946 67.7414 24.0681 67.7414C24.0036 67.7414 23.9392 67.7414 23.878 67.7414C23.6686 67.7446 23.6621 67.751 23.6621 67.9572C23.6621 68.6467 23.6621 69.3362 23.6621 70.0289C23.6621 70.0868 23.6686 70.1416 23.6718 70.2189C23.7652 70.2254 23.8522 70.2383 23.9392 70.2383C24.7188 70.2383 25.4984 70.2383 26.278 70.2383C29.87 70.2383 33.4588 70.2383 37.0508 70.2383C37.1442 70.2383 37.2377 70.248 37.3375 70.2512C37.3375 70.8247 37.3375 71.3756 37.3375 71.9458C37.2312 71.9491 37.1378 71.9587 37.0412 71.9587C32.7082 71.9587 28.3784 71.9587 24.0455 71.9587C23.9682 71.9587 23.8909 71.9555 23.8168 71.962C23.7684 71.9652 23.7234 71.9813 23.6718 71.9942C23.6718 72.9382 23.6718 73.8693 23.6718 74.8197C23.7685 74.8262 23.8554 74.8391 23.9424 74.8391C29.2966 74.8391 34.6508 74.8391 40.005 74.8391C40.2885 74.8391 40.2885 74.8391 40.2885 74.5491C40.2885 65.1188 40.2885 55.6884 40.2885 46.2581C40.2885 46.2066 40.2852 46.155 40.2852 46.1035C40.2852 46.0262 40.2466 45.9843 40.1693 45.9811C40.092 45.9778 40.0147 45.9746 39.9406 45.9746C34.625 45.9746 29.3095 45.9746 23.994 45.9746C23.936 45.9746 23.878 45.9714 23.82 45.9778C23.7717 45.9843 23.7234 45.9972 23.6718 46.01C23.6718 47.0024 23.6718 47.985 23.6718 48.9902C23.7813 48.9967 23.8812 49.0064 23.9811 49.0064C27.5956 49.0064 31.2134 49.0064 34.828 49.0064C35.5883 49.0064 36.3485 49.0064 37.1088 49.0064C37.1829 49.0064 37.257 49.016 37.3408 49.0225C37.3504 49.5928 37.3504 50.1405 37.3504 50.7172ZM12.1226 54.0453C12.0421 54.0453 11.9873 54.0421 11.9293 54.0453C11.2528 54.084 10.5795 54.1259 9.90299 54.1645C9.69037 54.1774 9.69035 54.1742 9.64525 54.3868C9.52605 54.9281 9.41009 55.4726 9.29089 56.0139C8.84632 58.0565 8.39852 60.1024 7.95395 62.145C7.9024 62.3834 7.84441 62.6186 7.78964 62.857C7.75421 62.7797 7.74134 62.7024 7.73168 62.6283C7.61248 61.8712 7.49325 61.1172 7.37405 60.3601C7.23875 59.4967 7.10989 58.6332 6.97459 57.7697C6.85217 56.9772 6.72656 56.1814 6.60092 55.3888C6.55582 55.0989 6.51069 54.8089 6.45915 54.5189C6.43338 54.3739 6.41084 54.3643 6.26909 54.3707C6.19822 54.374 6.13056 54.3868 6.05968 54.39C5.49914 54.419 4.9386 54.448 4.37805 54.4803C4.28785 54.4867 4.19444 54.5093 4.10745 54.5254C4.12678 54.8572 6.35607 66.1143 6.43339 66.2658C6.54614 66.2787 6.66533 66.2948 6.78453 66.3012C7.03259 66.3205 7.28066 66.3366 7.52872 66.3495C7.93785 66.3721 8.34374 66.3946 8.75288 66.414C8.90429 66.4204 8.91395 66.4108 8.94939 66.2658C9.01382 65.9984 9.07183 65.7309 9.12981 65.4635C9.57116 63.4434 10.0125 61.4266 10.4539 59.4065C10.5473 58.9844 10.6375 58.5591 10.718 58.1821C10.7341 58.2691 10.7535 58.4077 10.7792 58.5462C11.0788 59.9767 11.3784 61.404 11.6812 62.8345C11.9357 64.0395 12.1902 65.2444 12.4447 66.4494C12.4802 66.6234 12.4963 66.6363 12.6703 66.6459C12.9119 66.662 13.1535 66.6717 13.3983 66.6878C13.9331 66.72 14.4679 66.7523 15.0027 66.7845C15.2121 66.7974 15.2249 66.7941 15.27 66.5847C15.6921 64.7386 16.1141 62.8893 16.5361 61.0431C17.0773 58.6815 17.6185 56.3167 18.163 53.9551C18.1823 53.8713 18.1984 53.7843 18.2177 53.6748C18.1082 53.6748 18.0277 53.6716 17.9471 53.6748C17.203 53.7199 16.4556 53.7683 15.7114 53.8134C15.5406 53.823 15.5374 53.823 15.5052 53.997C15.3796 54.7058 15.2539 55.4178 15.1283 56.1266C14.9672 57.0448 14.8062 57.9599 14.6451 58.8781C14.4872 59.7899 14.3261 60.7016 14.1683 61.6102C14.091 62.0484 14.0137 62.4833 13.9331 62.9215C13.9202 62.9215 13.9073 62.9247 13.8944 62.9247C13.3049 59.9703 12.7121 57.0094 12.1226 54.0453Z" fill="#A9A9A9"/>
<defs>
<linearGradient id="paint0_linear_2150_711" x1="25.4095" y1="19.9522" x2="48.7266" y2="19.9522" gradientUnits="userSpaceOnUse">
<stop stop-color="white"/>
<stop offset="1" stop-color="#010202"/>
</linearGradient>
</defs>
</svg>
