<svg width="83" height="80" viewBox="0 0 83 80" fill="none" xmlns="http://www.w3.org/2000/svg">
<path d="M36.0382 29.7273C36.5959 30.6023 36.8875 31.652 36.8507 32.7513C36.8507 34.2561 36.5094 35.418 35.7915 36.2738C34.2067 38.1632 31.3993 38.7001 29.0565 38.7001H27.2458C26.8356 38.7001 26.3901 38.6664 25.9126 38.6327V27.1456C26.1514 27.1103 26.6305 27.0767 27.3131 27.1103C27.9637 27.0767 28.7489 27.0767 29.6382 27.0767C31.9938 27.0767 34.6842 27.6007 36.0382 29.7273Z" fill="#3D3D3D"/>
<path d="M67.5145 0H14.5291C6.49458 0 0 6.49518 0 14.5304V65.4695C0 73.5048 6.49458 80 14.5291 80H67.5145C75.5489 80 82.0435 73.5048 82.0435 65.4695V14.5304C82.0435 6.49518 75.5489 0 67.5145 0ZM42.2524 39.8285C40.8856 41.7436 38.9707 43.1795 36.7481 44C34.4246 44.8541 31.8608 45.1618 29.0565 45.1618C28.2361 45.1618 27.6897 45.1618 27.3484 45.1282C27.0055 45.0945 26.5279 45.0945 25.8774 45.0945V56.0689C25.9126 56.3077 25.7411 56.5128 25.5024 56.5465H18.87C18.596 56.5465 18.4598 56.4102 18.4598 56.1025V20.923C18.4598 20.6843 18.5623 20.5465 18.8011 20.5465C19.3828 20.5465 19.9292 20.5465 20.716 20.5128C21.5364 20.4792 22.3905 20.4791 23.3135 20.4439C24.2365 20.4102 25.2284 20.4102 26.2876 20.3766C27.3484 20.3413 28.3739 20.3413 29.3995 20.3413C32.2021 20.3413 34.5272 20.6843 36.4405 21.4022C38.1502 21.9823 39.7222 22.9407 41.0218 24.2051C42.1162 25.2997 42.9703 26.633 43.5167 28.1025C44.0295 29.5384 44.3035 31.008 44.3035 32.5465C44.3035 35.4872 43.6193 37.915 42.2524 39.8285ZM66.4889 53.1282C65.5323 54.4952 64.1991 55.5561 62.6607 56.1715C60.9862 56.8894 58.9351 57.2644 56.4738 57.2644C54.9003 57.2644 53.3619 57.1282 51.8236 56.8205C50.6282 56.6154 49.4312 56.2388 48.3368 55.726C48.098 55.5897 47.9266 55.351 47.9618 55.0769V49.1282C47.9618 49.0256 47.9955 48.8894 48.098 48.8205C48.2006 48.7516 48.3031 48.7868 48.4057 48.8541C49.7389 49.641 51.141 50.1875 52.6441 50.5304C53.9436 50.8718 55.3105 51.0433 56.6789 51.0433C57.9769 51.0433 58.8999 50.8718 59.5152 50.5641C60.0632 50.3253 60.4382 49.7436 60.4382 49.1282C60.4382 48.649 60.1658 48.2051 59.6178 47.7612C59.0713 47.3157 57.9432 46.8029 56.2687 46.1539C54.5253 45.5385 52.9181 44.7179 51.4134 43.6923C50.3542 42.9407 49.4649 41.9487 48.8159 40.7869C48.2695 39.6923 47.9955 38.4952 48.0291 37.2997C48.0291 35.8285 48.4393 34.4279 49.1925 33.1619C50.0465 31.7949 51.3108 30.7003 52.7819 30.0176C54.3875 29.1971 56.4049 28.8205 58.8326 28.8205C60.2331 28.8205 61.6688 28.9231 63.071 29.1282C64.0965 29.2644 65.0884 29.5385 66.0114 29.9151C66.1476 29.9487 66.2838 30.0849 66.3527 30.2227C66.3863 30.359 66.4216 30.4952 66.4216 30.633V36.2051C66.4216 36.3413 66.3527 36.4791 66.2501 36.5464C65.9425 36.6154 65.771 36.6154 65.6348 36.5464C64.6093 36 63.5148 35.6234 62.3531 35.3846C61.0888 35.1105 59.8229 34.9407 58.5249 34.9407C57.8407 34.9054 57.1228 35.008 56.4738 35.1795C56.0284 35.2821 55.6534 35.5208 55.413 35.8638C55.2432 36.1362 55.1406 36.4791 55.1406 36.7868C55.1406 37.0945 55.2768 37.4022 55.4819 37.6747C55.7896 38.0513 56.1998 38.359 56.6437 38.5977C57.4305 39.008 58.2509 39.3846 59.0713 39.7259C60.9173 40.3413 62.6944 41.1971 64.3352 42.2228C65.4633 42.9407 66.3864 43.8974 67.0369 45.0593C67.5834 46.1538 67.8574 47.351 67.8221 48.5817C67.8574 50.1875 67.3782 51.7949 66.4889 53.1282Z" fill="#3D3D3D"/>
</svg>
