<svg width="60" height="80" viewBox="0 0 60 80" fill="none" xmlns="http://www.w3.org/2000/svg">
<path d="M33.3051 20.0022C33.399 19.9031 33.3625 19.778 33.3625 19.6651C33.3642 14.2627 33.3677 8.86033 33.3625 3.45969C33.3608 2.52831 33.6249 1.69943 34.2729 1.03043C34.7264 0.563 35.2772 0.250235 35.9305 0.0886333C36.3718 -0.0208391 36.8027 0.0139031 37.2371 0.0121654C43.6728 0.00521477 50.1084 0.0121747 56.5441 1.11345e-05C57.3364 -0.00172652 58.0401 0.199847 58.6691 0.656851C59.3536 1.15382 59.7654 1.83671 59.9461 2.66383C59.9948 2.88973 59.9913 3.11389 59.9913 3.34152C59.9913 27.8477 59.993 52.3556 59.9913 76.8618C59.9913 77.5846 59.7012 78.212 59.2564 78.7628C58.8098 79.3154 58.2364 79.6907 57.5432 79.8679C57.2825 79.934 57.0202 80 56.7439 80C52.362 79.9983 47.9783 79.9983 43.5963 79.9983C43.5007 79.9983 43.4069 79.993 43.3114 79.9913C43.3114 79.2233 43.3114 78.4535 43.3114 77.6854C43.3114 66.7417 43.3131 55.7997 43.3131 44.8559C43.3131 42.1955 43.3096 39.5352 43.3096 36.8731C43.3096 36.7792 43.3096 36.6854 43.3096 36.5916C43.3096 36.5447 43.3096 36.496 43.3096 36.4491C43.3096 36.3709 43.3096 36.291 43.3096 36.2128C43.3096 36.1659 43.3096 36.1172 43.3096 36.0703C43.3096 36.0234 43.3096 35.9747 43.3096 35.9278C43.3096 35.7853 43.3096 35.6446 43.3096 35.5021C43.3096 35.3596 43.3096 35.2171 43.3096 35.0746C43.3096 35.0277 43.3096 34.979 43.3096 34.9321C43.3096 34.9009 43.3096 34.8696 43.3096 34.84C43.3096 34.8227 43.3096 34.8053 43.3096 34.7879C43.3096 34.7097 43.3096 34.6332 43.3096 34.5551C43.3096 34.5377 43.3096 34.5203 43.3096 34.5029C43.3096 34.4247 43.3096 34.3483 43.3096 34.2701C43.3096 34.2527 43.3096 34.2353 43.3096 34.2179C43.3096 34.1397 43.3096 34.0633 43.3096 33.9851C43.3096 33.9364 43.3096 33.8878 43.3096 33.8391C43.3096 33.7766 43.3096 33.714 43.3096 33.6515C43.3096 33.6046 43.3096 33.5559 43.3096 33.509C43.3096 33.4308 43.3096 33.3509 43.3096 33.2727C43.3096 33.257 43.3096 33.2396 43.3096 33.224C43.3096 33.1927 43.3096 33.1632 43.3114 33.1319C43.3114 33.1145 43.3114 33.0972 43.3114 33.0798C43.3114 33.0172 43.3114 32.9547 43.3114 32.8921C43.3131 32.7496 43.3131 32.6089 43.3149 32.4664C43.3166 29.4585 43.3097 26.4489 43.3218 23.441C43.3253 22.6121 43.1376 21.8649 42.599 21.2185C41.9214 20.4053 41.0422 19.9883 40.0049 19.9761C39.5184 19.9692 39.025 19.9709 38.5333 19.99C37.4004 20.0317 36.2658 20.0039 35.133 20.0039C34.5214 20.0022 33.9133 20.0022 33.3051 20.0022Z" fill="#575756"/>
<path d="M25.926 79.9858C24.569 79.9893 23.2103 79.9962 21.8533 79.9962C15.6713 79.9962 9.49106 80.0066 3.30906 79.9858C2.24224 79.9823 1.35437 79.5201 0.69934 78.6426C0.325779 78.1404 0.127701 77.5896 0.0443018 76.9762C0.00433949 76.6929 0.00260369 76.4149 0.00260369 76.1334C0.000866202 65.2366 -0.00434119 54.3397 0.00782126 43.4429C0.00955875 42.018 0.727135 40.8051 2.12755 40.23C2.47853 40.0857 2.84686 39.9971 3.23779 39.9971C7.6267 40.0006 12.0173 40.0006 16.4063 39.9988C16.514 39.9988 16.6287 40.0284 16.7242 39.9502C18.9604 39.9658 21.1948 39.9832 23.4309 39.9971C24.5811 40.004 25.4725 40.508 26.1171 41.4394C26.5619 42.0823 26.7287 42.8086 26.7061 43.5975C26.687 44.2561 26.7322 44.9164 26.6957 45.5767C26.6609 46.211 26.687 46.8504 26.6835 47.4864C26.6766 48.4317 26.6853 49.3752 26.6766 50.3205C26.6749 50.5864 26.5584 50.8748 26.7287 51.1355C26.7287 51.1824 26.7287 51.2293 26.7287 51.2762C26.6644 51.4656 26.6436 51.6568 26.7287 51.8462C26.7287 51.8931 26.7287 51.9383 26.7305 51.9852C26.5932 52.0477 26.6974 52.1138 26.7287 52.1781C26.7287 52.2094 26.7287 52.2389 26.7305 52.2702C26.7096 52.2789 26.6887 52.2875 26.6696 52.2962C26.6887 52.3049 26.7096 52.3154 26.7287 52.324C26.7287 52.3849 26.7287 52.4457 26.7287 52.5065C26.7096 52.5152 26.6887 52.5256 26.6696 52.5343C26.6887 52.543 26.7096 52.5517 26.7287 52.5621C26.7287 52.7341 26.7287 52.9044 26.7287 53.0764C26.661 53.1268 26.5845 53.1755 26.7305 53.2241C26.7305 55.0782 26.7287 56.934 26.7287 58.7881C26.7287 61.511 26.727 64.2339 26.727 66.9568C26.6088 66.9551 26.5862 67.0263 26.5897 67.1271C26.5984 67.3148 26.6036 67.5025 26.6036 67.6901C26.6018 68.4599 26.5984 69.2297 26.5949 69.9995C26.5949 70.029 26.5949 70.0603 26.5949 70.0898C26.5949 70.1229 26.5932 70.1559 26.5932 70.1889C26.5741 70.46 26.6262 70.7363 26.5619 71.0056C26.5376 71.1012 26.5393 71.1898 26.5949 71.2749C26.5949 71.3079 26.5949 71.341 26.5949 71.374C26.5949 71.4035 26.5949 71.4348 26.5949 71.4643C26.5949 71.4974 26.5932 71.5304 26.5932 71.5634C26.581 71.7215 26.5289 71.8779 26.5949 72.036C26.5167 72.1159 26.5185 72.1941 26.5949 72.2723C26.5949 72.3505 26.5949 72.4305 26.5949 72.5087C26.5393 72.54 26.5393 72.573 26.5949 72.6042C26.5949 72.6668 26.5949 72.7311 26.5949 72.7936C26.5393 72.8249 26.5411 72.8579 26.5949 72.8892C26.5949 72.9518 26.5949 73.0143 26.5949 73.0769C26.5637 73.1846 26.5445 73.2993 26.4959 73.3966C26.4264 73.5356 26.409 73.6607 26.4351 73.8223C26.4629 73.9961 26.6123 74.2064 26.3656 74.3645C26.3308 74.3871 26.2978 74.5174 26.3343 74.6078C26.3847 74.7381 26.3308 74.8719 26.2683 74.9657C26.164 75.1256 26.1658 75.2507 26.237 75.4244C26.3656 75.7372 26.3343 75.7876 26.0441 75.984C25.9885 76.0222 25.9746 76.0639 26.0059 76.123C26.0354 76.1786 26.0546 76.2342 26.0216 76.3002C25.9086 76.5313 26.0493 76.7868 25.952 77.0318C25.926 77.0995 25.8964 77.2334 25.9503 77.3463C26.0858 77.6382 26.025 77.9684 25.9816 78.2499C25.9486 78.4688 26.058 78.6965 25.9173 78.9345C25.846 79.0562 25.6914 79.3394 25.9173 79.5375C25.926 79.5444 25.9156 79.5879 25.9017 79.6018C25.7731 79.7391 25.853 79.8624 25.926 79.9858Z" fill="#B7B7B6"/>
<path d="M26.7287 51.2782C26.7287 51.2313 26.7287 51.1844 26.7287 51.1374C26.8138 51.061 26.7773 50.9602 26.7773 50.8698C26.779 49.1652 26.7808 47.4605 26.7773 45.7559C26.7773 45.5839 26.7912 45.4379 26.9319 45.3093C27.0258 45.2242 27.0987 45.1077 27.0206 44.9514C26.9476 44.8054 26.6696 44.6768 26.9528 44.477C26.892 44.2215 27.0605 44.1955 27.2482 44.159C27.3559 44.1381 27.4688 44.0374 27.4323 43.9227C27.3924 43.7958 27.3785 43.6221 27.2985 43.5508C27.0553 43.3354 27.2395 43.1407 27.3142 42.9704C27.3733 42.8366 27.5366 42.755 27.4028 42.576C27.3715 42.5326 27.4028 42.4578 27.4375 42.3988C27.5227 42.2545 27.62 42.331 27.7156 42.3744C27.8563 42.4387 27.9223 42.5412 27.8563 42.6924C27.7677 42.8992 27.9571 42.9635 28.0578 43.0382C28.1916 43.1372 28.1829 42.9618 28.2264 42.8957C28.3619 42.6889 28.4349 42.6855 28.5721 42.9009C28.6103 42.96 28.6364 43.0017 28.6885 42.9426C28.8154 42.7967 28.8762 42.9322 28.9457 43C29.1681 43.2137 29.1559 43.2102 29.3001 42.9409C29.3488 42.8505 29.4044 42.6629 29.5625 42.7741C29.7102 42.8766 29.8075 42.9895 29.804 42.6941C29.804 42.6768 29.8388 42.6611 29.8475 42.6403C29.9152 42.4891 30.0872 42.3588 29.8909 42.1659C29.8318 42.1068 29.8996 41.9713 29.9812 41.9C30.0455 41.8427 30.1081 41.9087 30.1081 41.947C30.1081 42.1155 30.2957 42.2736 30.1393 42.4492C30.0924 42.5013 30.1115 42.5499 30.1428 42.5986C30.1932 42.675 30.2245 42.6177 30.2731 42.5899C30.3895 42.5239 30.3895 42.6455 30.3965 42.6959C30.4104 42.7776 30.3895 42.8644 30.3861 42.9479C30.3843 43.0226 30.4191 43.0799 30.4973 43.0608C30.5494 43.0469 30.6641 43.0451 30.6398 42.9739C30.5946 42.8471 30.6641 42.682 30.5685 42.5951C30.3756 42.4213 30.6154 42.3605 30.6415 42.2476C30.6675 42.1329 30.7596 42.1989 30.843 42.2041C31.0029 42.2146 31.1645 42.159 31.3243 42.1225C31.5502 42.0721 31.6683 41.7593 31.9533 41.8757C31.9654 41.8809 32.0071 41.8531 32.0071 41.8392C32.0141 41.6411 32.1948 41.5577 32.2799 41.41C32.3251 41.3336 32.3042 41.2814 32.2486 41.2224C32.2104 41.1824 32.1201 41.1476 32.1792 41.0729C32.2365 41.0017 32.2904 40.9061 32.3963 40.9061C32.485 40.9061 32.5319 40.9756 32.5579 41.0555C32.577 41.1146 32.5927 41.1772 32.617 41.2345C32.6518 41.3162 32.7282 41.3475 32.8047 41.3614C32.895 41.3753 32.9211 41.3075 32.9436 41.2345C32.9732 41.1389 33.0618 41.0885 33.1243 41.019C33.1799 40.9582 33.2303 40.9513 33.2634 41.0399C33.2807 41.0851 33.2529 41.1702 33.3398 41.1563C33.4006 41.1459 33.4076 41.0799 33.4128 41.0225C33.418 40.9582 33.4249 40.8331 33.5118 40.8974C33.7585 41.0799 33.7863 40.8835 33.8402 40.7306C33.8871 40.5933 33.9532 40.5586 34.0713 40.6698C34.0713 40.5812 34.0748 40.5012 34.0713 40.423C34.0626 40.2458 34.0365 40.0703 34.08 39.8948C34.1095 39.7714 34.1981 39.6411 34.3006 39.6602C34.4205 39.6828 34.4779 39.8201 34.4292 39.9678C34.3945 40.0738 34.384 40.1867 34.4796 40.2753C34.5161 40.3084 34.5613 40.3414 34.6047 40.3101C34.6394 40.2858 34.6846 40.2232 34.676 40.1971C34.596 39.9921 34.6742 39.754 34.523 39.5611C34.3927 39.3943 34.4918 39.2171 34.5717 39.0607C34.5995 39.0051 34.6551 38.9008 34.7489 38.946C34.8236 38.9825 34.8879 39.0538 34.8827 39.1545C34.8792 39.2327 34.8984 39.3127 34.8497 39.3839C34.8289 39.4152 34.7976 39.4743 34.808 39.4847C34.9852 39.6706 34.9904 39.9434 35.1555 40.1485C35.1208 40.0008 35.2285 39.9104 35.2754 39.7992C35.3345 39.6567 35.4144 39.5872 35.569 39.7401C35.6472 39.8166 35.6472 40.0129 35.7845 39.966C35.8522 39.9434 35.8696 39.7679 35.9026 39.6585C35.9356 39.5507 35.9756 39.4291 36.0937 39.41C36.2171 39.3909 36.3092 39.4725 36.3439 39.6272C36.3839 39.5733 36.4047 39.5525 36.4186 39.5264C36.5715 39.2362 36.7766 39.0346 37.138 39.0764C37.2162 39.085 37.3135 39.0955 37.31 38.9547C37.3082 38.8904 37.3638 38.8591 37.4264 38.9095C37.4837 38.9547 37.5636 38.9686 37.5932 38.9061C37.6644 38.7514 37.8243 38.708 37.9407 38.635C38.0936 38.5394 38.2535 38.2266 38.4984 38.5411C38.5401 38.595 38.667 38.6054 38.6635 38.4751C38.6565 38.2753 38.8164 38.2006 38.9241 38.0859C38.945 38.0633 38.9693 38.0077 39.0127 38.0668C39.2056 38.3378 39.2264 38.0181 39.3203 37.9695C39.3637 37.9469 39.3307 37.8079 39.4436 37.8565C39.534 37.8947 39.4975 37.9781 39.4731 38.0424C39.4193 38.1884 39.4853 38.2162 39.6156 38.2197C39.7772 38.2249 39.8902 38.2127 39.8433 38.0007C39.8224 37.9052 39.8502 37.8009 39.845 37.7019C39.8433 37.6567 39.7998 37.608 39.8502 37.5733C39.9179 37.5246 39.944 37.6011 39.9822 37.6306C40.123 37.7401 40.1525 37.7453 40.1699 37.6515C40.2046 37.4655 40.3436 37.3596 40.4826 37.2987C40.7328 37.191 40.9761 36.9842 41.2836 37.1406C41.334 37.1667 41.3931 37.1476 41.4365 37.1059C41.539 37.0051 41.6138 36.9981 41.6242 37.1667C41.6277 37.2188 41.6468 37.2414 41.6919 37.2344C41.7406 37.2275 41.7545 37.1858 41.7423 37.1441C41.7197 37.0659 41.7423 37.0172 41.8222 37.0103C42.0742 36.9859 42.3487 36.9564 42.5555 37.1024C42.7205 37.2188 42.7675 37.1545 42.8387 37.0363C42.8543 37.0103 42.8647 36.9616 42.8977 36.9772C43.0715 37.0624 43.1671 36.8834 43.3078 36.8608C43.3095 39.5212 43.3113 42.1815 43.3113 44.8436C43.3113 55.7874 43.3095 66.7294 43.3095 77.6732C43.3095 78.4412 43.3095 79.211 43.3095 79.9791C41.4226 79.9808 39.5357 79.986 37.6488 79.986C34.073 79.9877 30.4955 79.986 26.9198 79.986C26.8259 79.986 26.7304 79.9791 26.6366 79.9756C26.6366 79.2406 26.6296 78.5038 26.6366 77.7687C26.647 76.7157 26.6626 75.6627 26.6852 74.6097C26.6887 74.455 26.6505 74.3073 26.6644 74.1475C26.6956 73.8052 26.6696 73.4576 26.6626 73.1136C26.6626 73.0979 26.6157 73.0823 26.5897 73.0684C26.5897 73.0058 26.5897 72.9433 26.5897 72.8807C26.6088 72.8738 26.6418 72.872 26.6452 72.8599C26.6574 72.8164 26.6209 72.8025 26.5897 72.7852C26.5897 72.7226 26.5897 72.6583 26.5897 72.5958C26.6244 72.5888 26.6678 72.5871 26.6574 72.5384C26.6539 72.521 26.614 72.5123 26.5897 72.5002C26.5897 72.422 26.5897 72.3438 26.5897 72.2639C26.7478 72.1839 26.6835 72.1057 26.5897 72.0275C26.5254 71.8694 26.5758 71.713 26.5879 71.5549C26.6227 71.548 26.6678 71.5462 26.6574 71.4958C26.6539 71.4784 26.614 71.468 26.5897 71.4558C26.5897 71.4263 26.5897 71.395 26.5897 71.3655C26.6122 71.3533 26.6522 71.3429 26.6574 71.3255C26.6696 71.2769 26.6244 71.2734 26.5897 71.2664C26.5341 71.1813 26.5323 71.0927 26.5567 70.9971C26.6227 70.7278 26.5688 70.4532 26.5879 70.1804C26.6227 70.1735 26.6678 70.17 26.6574 70.1213C26.6539 70.104 26.614 70.0935 26.5897 70.0814C26.5897 70.0518 26.5897 70.0206 26.5897 69.991C26.7043 69.9684 26.6783 69.8781 26.6783 69.8033C26.68 69.6556 26.6748 69.5062 26.6748 69.3585C26.6817 68.5557 26.6678 67.7529 26.72 66.9501C26.72 64.2272 26.7217 61.5043 26.7217 58.7814C26.7217 56.9273 26.7234 55.0715 26.7234 53.2174C26.7234 53.1688 26.7234 53.1184 26.7217 53.0697C26.7217 52.8977 26.7217 52.7274 26.7217 52.5553C26.7217 52.5362 26.7217 52.5189 26.7217 52.5015C26.7217 52.4407 26.7217 52.3798 26.7217 52.319C26.7217 52.3017 26.7234 52.2843 26.7234 52.2652C26.7234 52.2339 26.7234 52.2044 26.7217 52.1731C26.8121 52.1088 26.7061 52.0445 26.7234 51.9802C26.7234 51.9333 26.7234 51.8881 26.7217 51.8412C26.779 51.657 26.786 51.4676 26.7287 51.2782ZM28.7615 43.1894C28.7546 43.1407 28.7303 43.0956 28.6764 43.0973C28.5965 43.099 28.5791 43.1616 28.5808 43.2294C28.5826 43.285 28.6121 43.318 28.6694 43.3075C28.732 43.2954 28.7615 43.2537 28.7615 43.1894ZM30.4104 43.3388C30.4069 43.2815 30.3756 43.2763 30.3444 43.278C30.3061 43.2815 30.2923 43.3093 30.2923 43.3423C30.2923 43.3805 30.32 43.3996 30.3531 43.3892C30.3774 43.3805 30.3965 43.3527 30.4104 43.3388ZM31.8873 42.6664C31.8821 42.6299 31.856 42.616 31.823 42.616C31.783 42.616 31.7639 42.6438 31.7778 42.675C31.7882 42.6994 31.8178 42.7237 31.8421 42.7289C31.8821 42.7359 31.8855 42.6976 31.8873 42.6664ZM31.9168 42.1711C31.9498 42.1676 31.9776 42.1572 31.9811 42.1207C31.9828 42.0895 31.9759 42.0512 31.9359 42.0582C31.9116 42.0617 31.8803 42.0877 31.8716 42.1103C31.8577 42.1433 31.8768 42.1694 31.9168 42.1711ZM33.6804 41.2571C33.6665 41.2432 33.6491 41.2154 33.623 41.2067C33.59 41.1946 33.5622 41.2137 33.5622 41.2519C33.5622 41.2849 33.5761 41.3127 33.6126 41.3162C33.6456 41.3197 33.6752 41.3144 33.6804 41.2571ZM43.207 37.0694C43.2053 37.0624 43.2035 37.0554 43.2001 37.0485C43.1983 37.0468 43.1897 37.052 43.1827 37.0537C43.1845 37.0607 43.1862 37.0676 43.1897 37.0746C43.1914 37.0763 43.2018 37.0711 43.207 37.0694Z" fill="#7A7A79"/>
<path d="M43.3096 36.8691C43.1688 36.8917 43.0733 37.0707 42.8995 36.9855C42.8648 36.9682 42.8561 37.0185 42.8405 37.0446C42.7692 37.1628 42.7223 37.2271 42.5572 37.1106C42.3487 36.9629 42.0759 36.9942 41.824 37.0186C41.7423 37.0255 41.7215 37.0759 41.7441 37.1523C41.7563 37.1923 41.7423 37.234 41.6937 37.2427C41.6485 37.2497 41.6294 37.2271 41.626 37.1749C41.6155 37.0064 41.5408 37.0133 41.4383 37.1141C41.3949 37.1558 41.3358 37.175 41.2854 37.1489C40.9761 36.9908 40.7346 37.1993 40.4844 37.307C40.3454 37.3661 40.2064 37.4738 40.1717 37.6597C40.1543 37.7536 40.1247 37.7484 39.984 37.6389C39.9458 37.6094 39.9197 37.5329 39.8519 37.5816C39.8015 37.6181 39.845 37.6667 39.8468 37.7101C39.852 37.8092 39.8259 37.9152 39.845 38.009C39.8919 38.2228 39.779 38.2332 39.6174 38.228C39.4871 38.2245 39.4211 38.1967 39.4749 38.0507C39.4992 37.9864 39.5357 37.903 39.4454 37.8648C39.3325 37.8179 39.3655 37.9569 39.322 37.9777C39.2265 38.0264 39.2074 38.3461 39.0145 38.0751C38.9728 38.016 38.9467 38.0733 38.9259 38.0942C38.8182 38.2088 38.6583 38.2836 38.6653 38.4834C38.6705 38.6137 38.5419 38.6016 38.5002 38.5494C38.2552 38.2349 38.0953 38.546 37.9424 38.6433C37.826 38.7162 37.6644 38.7597 37.5949 38.9143C37.5671 38.9769 37.4855 38.963 37.4281 38.9178C37.3639 38.8674 37.31 38.8987 37.3117 38.963C37.3152 39.1037 37.2179 39.0933 37.1397 39.0846C36.7766 39.0429 36.5733 39.2445 36.4204 39.5347C36.4065 39.5608 36.3857 39.5816 36.3457 39.6355C36.3109 39.4808 36.2189 39.3991 36.0955 39.4183C35.9774 39.4374 35.9391 39.5573 35.9044 39.6667C35.8713 39.7745 35.8522 39.95 35.7862 39.9743C35.649 40.0212 35.649 39.8266 35.5708 39.7484C35.4161 39.5972 35.3362 39.6667 35.2771 39.8075C35.2302 39.9187 35.1225 40.0091 35.1573 40.1568C34.9922 39.95 34.987 39.6772 34.8098 39.493C34.7993 39.4826 34.8306 39.4235 34.8515 39.3922C34.9001 39.3192 34.881 39.2393 34.8845 39.1628C34.8897 39.062 34.8254 38.9908 34.7507 38.9543C34.6569 38.9074 34.6013 39.0134 34.5735 39.069C34.4935 39.2254 34.3945 39.4009 34.5248 39.5694C34.676 39.7623 34.5978 40.0004 34.6777 40.2054C34.6881 40.2315 34.6412 40.294 34.6065 40.3184C34.563 40.3496 34.5179 40.3166 34.4814 40.2836C34.3858 40.195 34.3962 40.082 34.431 39.976C34.4796 39.8283 34.424 39.6911 34.3024 39.6685C34.1981 39.6494 34.1113 39.7797 34.0817 39.9031C34.0383 40.0786 34.0661 40.2558 34.073 40.4313C34.0765 40.5095 34.073 40.5877 34.073 40.6781C33.9566 40.5668 33.8906 40.5999 33.842 40.7389C33.7899 40.8918 33.762 41.0882 33.5136 40.9057C33.4267 40.8414 33.4198 40.9665 33.4146 41.0308C33.4093 41.0882 33.4041 41.1559 33.3416 41.1646C33.2547 41.1785 33.2825 41.0934 33.2651 41.0482C33.2321 40.9578 33.1817 40.9665 33.1261 41.0273C33.0636 41.0968 32.9749 41.1472 32.9454 41.2428C32.9228 41.3158 32.8951 41.3853 32.8064 41.3696C32.7283 41.3575 32.6518 41.3245 32.6188 41.2428C32.5945 41.1855 32.5788 41.1229 32.5597 41.0638C32.5336 40.9839 32.485 40.9126 32.3981 40.9144C32.2921 40.9144 32.2383 41.0099 32.1809 41.0812C32.1219 41.1559 32.2122 41.1907 32.2504 41.2306C32.306 41.2897 32.3269 41.3418 32.2817 41.4183C32.1966 41.5643 32.0159 41.6494 32.0089 41.8475C32.0089 41.8614 31.9672 41.8875 31.955 41.884C31.6701 41.7676 31.552 42.0803 31.3261 42.1307C31.1662 42.1672 31.0047 42.2228 30.8448 42.2124C30.7614 42.2072 30.6693 42.1412 30.6432 42.2558C30.6189 42.3671 30.3774 42.4279 30.5703 42.6034C30.6658 42.6903 30.5963 42.8553 30.6415 42.9822C30.6658 43.0534 30.5512 43.0552 30.499 43.0691C30.4209 43.0899 30.3861 43.0308 30.3878 42.9561C30.3896 42.871 30.4104 42.7841 30.3983 42.7042C30.3896 42.6538 30.3913 42.5321 30.2749 42.5982C30.2263 42.626 30.1932 42.6833 30.1446 42.6069C30.1133 42.5582 30.0942 42.5095 30.1411 42.4574C30.2975 42.2819 30.1098 42.1238 30.1098 41.9552C30.1098 41.917 30.0473 41.851 29.983 41.9083C29.9031 41.9796 29.8336 42.1168 29.8927 42.1742C30.089 42.3671 29.917 42.4974 29.8492 42.6486C29.8405 42.6694 29.8058 42.6851 29.8058 42.7024C29.8093 42.9978 29.7119 42.8849 29.5643 42.7824C29.4061 42.6729 29.3505 42.8605 29.3019 42.9492C29.1577 43.2185 29.1681 43.222 28.9474 43.0083C28.8762 42.9405 28.8171 42.8049 28.6903 42.9509C28.6382 43.01 28.6121 42.9683 28.5739 42.9092C28.4366 42.6937 28.3637 42.6972 28.2281 42.904C28.1847 42.97 28.1934 43.1438 28.0596 43.0465C27.9588 42.9718 27.7695 42.9075 27.8581 42.7007C27.9224 42.5495 27.8581 42.447 27.7173 42.3827C27.6218 42.3393 27.5244 42.2628 27.4393 42.407C27.4046 42.4661 27.3715 42.5408 27.4046 42.5843C27.5366 42.7632 27.3733 42.8449 27.3159 42.9787C27.2412 43.149 27.057 43.3436 27.3003 43.5591C27.3802 43.6303 27.3941 43.8041 27.4341 43.9309C27.4706 44.0474 27.3577 44.1464 27.2499 44.1673C27.0623 44.2038 26.8937 44.2298 26.9545 44.4853C26.6731 44.6851 26.9511 44.8154 27.0223 44.9596C27.1005 45.116 27.0275 45.2307 26.9337 45.3176C26.793 45.4462 26.779 45.5922 26.779 45.7642C26.7825 47.4688 26.7825 49.1735 26.779 50.8781C26.779 50.9685 26.8173 51.0692 26.7304 51.1457C26.5602 50.8851 26.6766 50.5966 26.6783 50.3307C26.687 49.3855 26.6783 48.4419 26.6853 47.4966C26.6905 46.8606 26.6626 46.2212 26.6974 45.5869C26.7339 44.9249 26.6887 44.2663 26.7078 43.6077C26.7304 42.8188 26.5636 42.0925 26.1188 41.4496C25.4742 40.5182 24.5829 40.0143 23.4326 40.0073C21.1965 39.9917 18.9621 39.976 16.7259 39.9604C16.7294 39.8579 16.7329 39.7554 16.7329 39.6528C16.7329 34.0402 16.7294 28.4276 16.7381 22.8149C16.7381 22.4587 16.8875 22.1182 17.056 21.8123C17.5113 20.9869 18.1802 20.3979 19.1011 20.1372C19.3443 20.0695 19.5911 20.0069 19.8534 20.0069C24.3379 20.0121 28.8223 20.0121 33.3068 20.0121C33.9149 20.0121 34.5231 20.0121 35.1312 20.0104C36.264 20.0104 37.4004 20.0382 38.5315 19.9965C39.0214 19.9791 39.5149 19.9774 40.0031 19.9826C41.0404 19.9965 41.9196 20.4135 42.5972 21.225C43.1358 21.8714 43.3235 22.6186 43.32 23.4474C43.3078 26.4553 43.3131 29.465 43.3131 32.4728C43.2401 32.6136 43.2435 32.7561 43.3096 32.8986C43.3096 32.9611 43.3096 33.0237 43.3096 33.0862C43.2905 33.0949 43.2713 33.1036 43.2505 33.1123C43.2696 33.121 43.2887 33.1297 43.3096 33.1384C43.3096 33.1696 43.3096 33.1992 43.3078 33.2305C43.3026 33.2357 43.2922 33.2409 43.2922 33.2444C43.2957 33.2565 43.3026 33.267 43.3078 33.2791C43.3078 33.3573 43.3078 33.4372 43.3078 33.5154C43.254 33.5624 43.254 33.611 43.3078 33.6579C43.3078 33.7205 43.3078 33.783 43.3078 33.8456C43.2696 33.8491 43.2418 33.856 43.2435 33.9082C43.2453 33.9568 43.247 33.995 43.3078 33.9916C43.3078 34.0698 43.3078 34.1462 43.3078 34.2244C43.2887 34.2331 43.2696 34.2418 43.2487 34.2505C43.2679 34.2592 43.287 34.2678 43.3078 34.2765C43.3078 34.3547 43.3078 34.4312 43.3078 34.5094C43.2887 34.5181 43.2696 34.5268 43.2487 34.5354C43.2679 34.5441 43.287 34.5528 43.3078 34.5615C43.3078 34.6397 43.3078 34.7162 43.3078 34.7944C43.2887 34.803 43.2696 34.8117 43.2487 34.8204C43.2679 34.8291 43.287 34.8378 43.3078 34.8465C43.3078 34.8778 43.3078 34.909 43.3078 34.9386C43.254 34.9855 43.254 35.0342 43.3078 35.0811C43.3078 35.2236 43.3078 35.366 43.3078 35.5085C43.2401 35.651 43.2401 35.7918 43.3078 35.9342C43.3078 35.9812 43.3078 36.0298 43.3078 36.0767C43.254 36.1237 43.254 36.1723 43.3078 36.2192C43.3078 36.2974 43.3078 36.3773 43.3078 36.4555C43.254 36.5025 43.254 36.5511 43.3078 36.598C43.3096 36.6814 43.3096 36.7753 43.3096 36.8691ZM38.9241 36.9942C38.8651 37.0255 38.8181 37.0672 38.8199 37.1367C38.8216 37.2045 38.8685 37.2688 38.9294 37.267C39.0023 37.2653 39.0527 37.1993 39.0423 37.1193C39.0336 37.0533 38.9919 37.0081 38.9241 36.9942ZM38.25 37.135C38.2065 37.1732 38.1509 37.208 38.1561 37.2792C38.1614 37.347 38.2066 37.4113 38.2674 37.4078C38.3386 37.4026 38.3907 37.3383 38.3785 37.2566C38.3681 37.1941 38.3282 37.1471 38.25 37.135Z" fill="#7A7A79"/>
<path d="M26.5949 73.0752C26.6193 73.0908 26.6662 73.1047 26.6679 73.1204C26.6749 73.4661 26.7009 73.8137 26.6696 74.1543C26.654 74.3141 26.6939 74.4618 26.6905 74.6165C26.6661 75.6695 26.6505 76.7225 26.6419 77.7755C26.6349 78.5106 26.6401 79.2474 26.6419 79.9824C26.4038 79.9824 26.1675 79.9841 25.9295 79.9841C25.8565 79.8607 25.7766 79.7374 25.9052 79.5983C25.9191 79.5844 25.9277 79.541 25.9208 79.5341C25.6949 79.336 25.8495 79.051 25.9208 78.9311C26.0615 78.693 25.9503 78.4671 25.9851 78.2464C26.0285 77.9649 26.0893 77.6348 25.9538 77.3429C25.9017 77.2299 25.9295 77.0961 25.9555 77.0284C26.0528 76.7834 25.9121 76.5279 26.025 76.2968C26.0581 76.229 26.0389 76.1752 26.0094 76.1196C25.9781 76.0605 25.992 76.0188 26.0476 75.9806C26.3378 75.7842 26.3673 75.7338 26.2405 75.421C26.1693 75.249 26.1692 75.1222 26.2718 74.9623C26.3326 74.8667 26.3882 74.7346 26.3378 74.6043C26.3031 74.5122 26.3343 74.3836 26.3691 74.361C26.6141 74.2029 26.4663 73.9909 26.4385 73.8189C26.4125 73.659 26.4299 73.5322 26.4994 73.3932C26.5446 73.2976 26.5619 73.1829 26.5949 73.0752Z" fill="#B7B7B6"/>
<path d="M43.3096 32.8916C43.2436 32.7491 43.2401 32.6066 43.3131 32.4658C43.3113 32.6066 43.3096 32.7491 43.3096 32.8916Z" fill="#7A7A79"/>
<path d="M43.3096 35.9243C43.2418 35.7818 43.2418 35.641 43.3096 35.4985C43.3096 35.641 43.3096 35.7818 43.3096 35.9243Z" fill="#7A7A79"/>
<path d="M43.3101 33.9839C43.2488 33.9857 43.2471 33.9489 43.2453 33.8999C43.2436 33.8474 43.2716 33.8404 43.3101 33.8369C43.3101 33.8859 43.3101 33.9349 43.3101 33.9839Z" fill="#7A7A79"/>
<path d="M43.3082 36.5888C43.254 36.5416 43.254 36.4926 43.3082 36.4453C43.3082 36.4926 43.3082 36.5416 43.3082 36.5888Z" fill="#7A7A79"/>
<path d="M43.3082 36.2099C43.254 36.1627 43.254 36.1137 43.3082 36.0664C43.3082 36.1137 43.3082 36.1627 43.3082 36.2099Z" fill="#7A7A79"/>
<path d="M43.3082 35.0722C43.254 35.025 43.254 34.976 43.3082 34.9287C43.3082 34.9777 43.3082 35.025 43.3082 35.0722Z" fill="#7A7A79"/>
<path d="M43.3082 33.6503C43.254 33.6031 43.254 33.5541 43.3082 33.5068C43.3082 33.5558 43.3082 33.6031 43.3082 33.6503Z" fill="#7A7A79"/>
<path d="M43.3101 34.8372C43.2908 34.8284 43.2715 34.8197 43.2505 34.8109C43.2698 34.8022 43.2891 34.7934 43.3101 34.7847C43.3101 34.8022 43.3101 34.8197 43.3101 34.8372Z" fill="#7A7A79"/>
<path d="M43.3101 34.554C43.2908 34.5452 43.2715 34.5365 43.2505 34.5277C43.2698 34.519 43.2891 34.5102 43.3101 34.5015C43.3101 34.519 43.3101 34.5365 43.3101 34.554Z" fill="#7A7A79"/>
<path d="M43.3101 34.2683C43.2908 34.2596 43.2715 34.2508 43.2505 34.2421C43.2698 34.2333 43.2891 34.2246 43.3101 34.2158C43.3101 34.2333 43.3101 34.2508 43.3101 34.2683Z" fill="#7A7A79"/>
<path d="M43.3101 33.1306C43.2908 33.1219 43.2715 33.1131 43.2505 33.1044C43.2698 33.0956 43.2891 33.0869 43.3101 33.0781C43.3101 33.0974 43.3101 33.1149 43.3101 33.1306Z" fill="#7A7A79"/>
<path d="M43.3079 33.2708C43.3027 33.2587 43.2957 33.2482 43.2922 33.2361C43.2922 33.2326 43.3027 33.2274 43.3079 33.2222C43.3079 33.2395 43.3079 33.2552 43.3079 33.2708Z" fill="#7A7A79"/>
<path d="M26.7253 66.9576C26.6731 67.7586 26.687 68.5631 26.6801 69.3659C26.6784 69.5136 26.6836 69.6631 26.6836 69.8108C26.6836 69.8855 26.7096 69.9776 26.595 69.9985C26.5984 69.2287 26.6019 68.4589 26.6036 67.6891C26.6036 67.5015 26.5967 67.3138 26.5897 67.1261C26.5845 67.0253 26.6071 66.9558 26.7253 66.9576Z" fill="#959494"/>
<path d="M26.7287 51.2783C26.7861 51.4677 26.7791 51.6589 26.7287 51.8483C26.6436 51.6571 26.6645 51.4677 26.7287 51.2783Z" fill="#959494"/>
<path d="M26.5954 72.0347C26.6899 72.1134 26.7547 72.1939 26.5954 72.2727C26.5166 72.1939 26.5166 72.1134 26.5954 72.0347Z" fill="#959494"/>
<path d="M26.7292 51.9868C26.7135 52.0516 26.8202 52.1163 26.7275 52.1811C26.6977 52.1146 26.5909 52.0498 26.7292 51.9868Z" fill="#959494"/>
<path d="M26.5952 72.5068C26.618 72.5191 26.6582 72.5278 26.6635 72.5453C26.674 72.5943 26.6302 72.5978 26.5952 72.6031C26.5392 72.5716 26.5392 72.5383 26.5952 72.5068Z" fill="#959494"/>
<path d="M26.7294 53.0752C26.7294 53.1242 26.7294 53.1732 26.7311 53.224C26.5841 53.1767 26.6611 53.1259 26.7294 53.0752Z" fill="#959494"/>
<path d="M26.5952 72.792C26.625 72.8095 26.6634 72.8235 26.6512 72.8672C26.6477 72.8795 26.6145 72.8812 26.5952 72.8882C26.5392 72.855 26.5375 72.8235 26.5952 72.792Z" fill="#959494"/>
<path d="M26.595 70.0884C26.6195 70.1024 26.6597 70.1111 26.6632 70.1286C26.6737 70.1776 26.6282 70.1811 26.5932 70.1881C26.5932 70.1549 26.5932 70.1216 26.595 70.0884Z" fill="#959494"/>
<path d="M26.5949 71.2729C26.6299 71.2817 26.6737 71.2835 26.6632 71.3325C26.6596 71.35 26.6194 71.3587 26.5949 71.3727C26.5949 71.3395 26.5949 71.3062 26.5949 71.2729Z" fill="#959494"/>
<path d="M26.595 71.4629C26.6195 71.4769 26.658 71.4856 26.6632 71.5031C26.6737 71.5521 26.6282 71.5556 26.5932 71.5626C26.5932 71.5294 26.5932 71.4961 26.595 71.4629Z" fill="#959494"/>
<path d="M26.7292 52.27C26.7292 52.2875 26.7275 52.305 26.7275 52.3243C26.7082 52.3155 26.6872 52.305 26.6679 52.2963C26.6889 52.2875 26.71 52.2788 26.7292 52.27Z" fill="#959494"/>
<path d="M26.7292 52.5063C26.7292 52.5238 26.7292 52.5431 26.7292 52.5606C26.7082 52.5519 26.6889 52.5431 26.6679 52.5326C26.6889 52.5239 26.7082 52.5151 26.7292 52.5063Z" fill="#959494"/>
<path d="M28.7629 43.1902C28.7629 43.2549 28.7314 43.2969 28.6719 43.3074C28.6141 43.3179 28.5844 43.2847 28.5826 43.2287C28.5809 43.1622 28.5966 43.0992 28.6789 43.0957C28.7314 43.0957 28.7559 43.1412 28.7629 43.1902Z" fill="#959494"/>
<path d="M30.4113 43.3389C30.3973 43.3529 30.378 43.3809 30.3535 43.3896C30.3203 43.4019 30.2923 43.3826 30.2923 43.3424C30.2923 43.3091 30.3063 43.2811 30.3448 43.2776C30.3763 43.2759 30.4078 43.2811 30.4113 43.3389Z" fill="#959494"/>
<path d="M31.8882 42.6668C31.8864 42.6983 31.8829 42.7368 31.8409 42.728C31.8164 42.7228 31.7849 42.6983 31.7762 42.6738C31.7622 42.6423 31.7832 42.6143 31.8217 42.6143C31.8549 42.6143 31.8812 42.6283 31.8882 42.6668Z" fill="#959494"/>
<path d="M31.9172 42.1717C31.8787 42.17 31.8577 42.142 31.8717 42.1105C31.8822 42.0877 31.912 42.0615 31.9365 42.058C31.9767 42.051 31.9837 42.0877 31.982 42.121C31.9785 42.1595 31.9505 42.17 31.9172 42.1717Z" fill="#959494"/>
<path d="M33.6813 41.2575C33.6778 41.3153 33.6463 41.3205 33.6148 41.317C33.5763 41.3135 33.564 41.2855 33.564 41.2523C33.564 41.2138 33.592 41.1945 33.6253 41.2068C33.648 41.2155 33.6655 41.2435 33.6813 41.2575Z" fill="#959494"/>
<path d="M43.2071 37.0695C43.2019 37.0713 43.1915 37.0765 43.1898 37.0748C43.1863 37.0695 43.1845 37.0609 43.1828 37.0539C43.188 37.0522 43.1984 37.047 43.2001 37.0487C43.2054 37.0556 43.2054 37.0626 43.2071 37.0695Z" fill="#959494"/>
<path d="M38.9242 36.9951C38.9937 37.009 39.0354 37.0542 39.0423 37.1202C39.0528 37.2002 39.0024 37.2662 38.9294 37.2679C38.8686 37.2697 38.8217 37.2054 38.8199 37.1376C38.8165 37.0664 38.8634 37.0247 38.9242 36.9951Z" fill="#7A7A79"/>
<path d="M38.25 37.1357C38.3282 37.1479 38.3698 37.1948 38.3785 37.2591C38.3907 37.3408 38.3386 37.4051 38.2674 37.4103C38.2065 37.4138 38.1613 37.3495 38.1561 37.2817C38.1509 37.2087 38.2065 37.174 38.25 37.1357Z" fill="#7A7A79"/>
</svg>
