<svg width="84" height="80" viewBox="0 0 84 80" fill="none" xmlns="http://www.w3.org/2000/svg">
<path d="M49.8849 80L0 71.2469V8.75315L49.8849 0V80Z" fill="#9D9D9C"/>
<path d="M83.6425 8.75293H52.3132V71.2466H83.6425V8.75293Z" fill="#9D9D9C"/>
<path d="M17.1573 50.369V24.957H27.9307C32.6707 24.957 36.0183 29.3231 36.0183 33.4047C36.0183 37.8307 32.6977 41.8524 28.1074 41.8524H22.0949V50.372L17.1573 50.369ZM22.0979 37.5192H27.8229C29.895 37.5192 31.0089 35.5848 31.0089 33.4047C31.0089 31.2366 29.7483 29.2902 27.6074 29.2902H22.0949L22.0979 37.5192Z" fill="white"/>
<path d="M61.7544 44.1211L53.5204 52.356L61.7544 60.5908L69.9885 52.356L61.7544 44.1211Z" fill="white"/>
<path d="M74.2434 32.272V17.1704H52.3133V20.2069H71.2042V32.272H64.491L72.7253 40.5071L80.9566 32.272H74.2434Z" fill="white"/>
</svg>
