<svg width="80" height="80" viewBox="0 0 80 80" fill="none" xmlns="http://www.w3.org/2000/svg">
<path fill-rule="evenodd" clip-rule="evenodd" d="M31.6892 53.5357L31.6829 53.5232C31.8032 53.4576 31.9251 53.392 32.0485 53.3232C32.6297 55.4764 32.5657 57.4842 31.9657 59.3014C31.4876 60.7467 30.6643 62.0592 29.6394 63.1779C27.3146 65.7139 24.068 66.6717 22.676 65.8639C21.173 64.9936 21.926 61.4186 24.6195 58.5701C27.5177 55.5061 31.6892 53.5357 31.6892 53.5357Z" fill="#CECECE"/>
<path fill-rule="evenodd" clip-rule="evenodd" d="M39.9978 0C17.9077 0 0 17.9078 0 40C0 62.0906 17.9077 80 39.9978 80C62.0863 80 79.9924 62.0906 79.9924 40C79.9924 17.9078 62.0863 0 39.9978 0ZM53.0372 35.4656C46.1035 38.1469 40.3712 37.7234 38.0151 36.95C35.3388 36.0719 33.7687 34.3047 33.3859 33.3094C33.2359 32.9187 32.9766 32.2641 33.3859 32.0359C33.6375 31.8969 33.7375 31.9312 34.4108 32.6734C35.0498 33.3781 37.6214 35.2703 42.5038 34.7234C55.3198 33.2859 63.0393 23.3266 60.6005 17.9688C58.8929 14.2172 49.0141 12.525 36.6715 18.675C21.6073 26.1828 20.7902 32.3719 20.6605 34.7234C20.3075 41.1891 28.641 44.5906 33.1484 49.4C33.2547 49.5141 33.3562 49.6281 33.4578 49.7422C34.8217 49.2359 36.709 48.95 39.7119 48.8984C47.0034 48.7719 51.1202 53.5797 50.9514 57.8766C50.8186 61.2609 47.7127 62.6547 47.1346 62.7531C46.7143 62.8234 46.4878 62.8359 46.4269 62.5062C46.3862 62.2812 46.5362 62.175 47.0284 61.8703C47.5205 61.5656 48.9923 60.5578 49.2547 58.725C49.5188 56.8906 48.1423 52.5094 41.1258 51.6906C38.6401 51.4 36.6825 51.5984 35.0045 52.0406C36.2216 54.7234 36.4544 60.1156 33.6546 64.2922C30.7549 68.6188 25.3554 71.2516 20.0965 69.7891C18.3983 69.3156 15.8329 65.8062 18.0452 60.9156C20.1418 56.2812 29.1019 51.7469 30.3253 51.1438V51.1219C26.1741 47.5469 16.0766 42.7297 14.6533 35.3594C14.2487 33.2703 15.2282 28.2719 21.3683 22.5281C26.5319 17.6969 33.714 13.9984 40.3478 11.6406C51.4951 7.67969 63.2737 10.0156 65.0845 17.1203C66.8671 24.1047 60.8021 32.4609 53.0372 35.4656Z" fill="#CECECE"/>
</svg>
