<svg width="74" height="80" viewBox="0 0 74 80" fill="none" xmlns="http://www.w3.org/2000/svg">
<path d="M38.5597 80C38.5597 79.0373 38.5597 78.4194 38.5597 77.8C38.5597 64.9992 38.541 52.2 38.5878 39.3992C38.5924 38.1259 38.2305 37.4254 37.09 36.7732C26.0066 30.4289 14.9653 24.0114 3.91002 17.6172C1.83188 16.4158 1.82719 16.4173 3.81327 15.269C10.6639 11.3073 17.5193 7.35506 24.3622 3.38095C26.0378 2.40731 27.7306 1.45709 29.6137 0.988997C32.9025 0.171394 36.249 -0.25301 39.6393 0.160473C42.7674 0.542749 45.7255 1.48361 48.4667 3.07668C53.5279 6.01787 58.5999 8.93877 63.6658 11.8737C66.3165 13.4091 68.936 14.999 71.6195 16.4751C72.8489 17.1507 73.3404 18.0167 73.3326 19.4287C73.2842 28.2944 73.3919 37.1617 73.2858 46.0274C73.175 55.2457 69.0827 62.2733 61.129 66.9589C54.1504 71.0704 47.1187 75.0913 40.1089 79.1512C39.6846 79.3946 39.2493 79.6208 38.5597 80ZM20.1529 16.3721C21.1077 16.9369 21.8503 17.2849 22.4853 17.7733C23.4027 18.4816 24.1906 18.4707 25.1516 17.8076C26.328 16.9978 27.6058 16.3315 28.857 15.6309C32.8167 13.4169 36.9745 13.0736 41.3196 14.2782C44.223 15.0833 46.543 16.9837 49.136 18.3646C52.6167 20.2183 55.9695 22.3106 59.4081 24.2454C60.2303 24.7073 60.4831 25.2643 60.4768 26.1802C60.4378 31.8613 60.4035 37.544 60.4784 43.225C60.5221 46.5345 59.4861 49.4476 57.7559 52.1937C56.0304 54.9321 53.4733 56.6468 50.7149 58.1759C47.4386 59.9937 47.4635 60.039 47.749 63.7853C47.7521 63.8274 47.8114 63.8648 47.9394 64.0224C50.8304 62.2499 54.0131 60.8815 56.6669 58.7143C61.0557 55.1287 63.8374 50.4586 64.0714 44.7635C64.3554 37.8451 64.1213 30.9048 64.1603 23.9739C64.165 23.0315 63.8358 22.5634 63.0261 22.1031C57.447 18.931 51.9037 15.6949 46.3511 12.4791C41.7408 9.80943 36.8357 9.39595 31.7246 10.5631C27.4856 11.532 24.2046 14.364 20.1529 16.3721ZM47.6945 47.9606C49.5214 45.8916 50.4996 43.6666 51.0145 41.245C51.7493 37.7967 51.2204 34.2891 51.3701 30.8128C51.3982 30.1777 50.9458 29.9827 50.5136 29.7346C48.1984 28.3974 45.944 26.9401 43.56 25.7433C40.694 24.3047 37.6204 23.86 34.004 24.4452C38.3678 26.9604 42.3368 29.2883 46.3527 31.5305C47.3418 32.0829 47.7381 32.6992 47.721 33.8538C47.6539 38.4614 47.6945 43.0721 47.6945 47.9606Z" fill="#C6C6C6"/>
<path d="M25.4574 49.1212C25.5447 48.9058 25.5853 48.8497 25.5884 48.7904C25.7991 45.1127 25.7959 45.119 22.6522 43.3012C15.5363 39.1867 8.4329 35.0487 1.29828 30.9669C0.390262 30.4474 -0.0309917 29.9137 0.00177171 28.809C0.090701 25.8335 0.0329674 22.8518 0.0329674 19.6641C1.53228 20.5144 2.82877 21.24 4.11746 21.9811C6.49359 23.3464 8.92901 24.6227 11.2209 26.1159C14.4894 28.2458 17.9327 30.0901 21.2714 32.0826C24.0205 33.7225 26.7991 35.4154 29.6995 36.8524C30.9694 37.4812 32.1817 38.2973 33.4626 38.9261C34.5843 39.4769 34.9151 40.1822 34.9073 41.4148C34.8511 50.4646 34.8761 59.5144 34.8761 68.5642C34.8761 72.3058 34.8761 76.0459 34.8761 79.7828C34.2505 79.8952 33.8823 79.5051 33.4641 79.2648C26.0752 74.9989 18.6442 70.8048 11.3192 66.4313C5.30945 62.8425 1.9348 57.3159 0.412076 50.5801C0.34967 50.3023 0.164038 49.9934 0.479191 49.6064C8.74181 54.3763 17.0216 59.1555 25.4824 64.0393C25.7351 62.7318 25.5682 61.6302 25.6274 60.5442C25.6774 59.6189 24.8879 59.4754 24.3309 59.1524C17.5474 55.2126 10.756 51.29 3.96613 47.3611C3.58857 47.1427 3.2313 46.8884 2.84126 46.6949C2.17663 46.3672 2.17974 45.9491 2.75544 45.6089C5.32815 44.0892 7.92737 42.6162 10.5063 41.1043C11.0571 40.7813 11.4549 41.0606 11.8762 41.3227C15.6658 43.685 19.7222 45.598 23.3839 48.1865C23.9253 48.5641 24.6945 48.8013 25.4574 49.1212Z" fill="#C6C6C6"/>
</svg>
