<svg width="86" height="80" viewBox="0 0 86 80" fill="none" xmlns="http://www.w3.org/2000/svg">
<path d="M73.9285 0H42.5775L11.2265 25.0981H73.9285V0Z" fill="#B1B1B1"/>
<path d="M11.2265 0H42.5775V25.0981H11.2265V0Z" fill="#BCBBBB"/>
<path d="M52.2871 64.7985L61.5727 18.0786L85.1599 22.7676L75.8744 69.4874L52.2871 64.7985Z" fill="black"/>
<path d="M63.9444 10.0713L42.5775 14.3211L9.29056 69.5007L73.2349 56.7795L63.9444 10.0713Z" fill="#767676"/>
<path d="M0 22.793L9.29054 69.5029L42.5775 62.8811V14.3232L0 22.793Z" fill="#706F6F"/>
<path d="M76.4232 30.9316H42.5775L32.5984 55.4659L42.5775 80.0002H76.4232V30.9316Z" fill="#D3D3D3"/>
<path d="M8.73172 30.9316H42.5775V80.0002H8.73172V30.9316Z" fill="#D6D6D6"/>
<path d="M52.806 42.9902H66.4441V47.9803H52.806V42.9902Z" fill="#F6F6F6"/>
<path d="M52.806 52.9702H66.4441V57.9602H52.806V52.9702Z" fill="#F6F6F6"/>
<path d="M52.806 62.9502H66.4441V67.9402H52.806V62.9502Z" fill="#F6F6F6"/>
<path d="M42.5775 52.9709H33.2637V57.9609H42.4943C41.3933 62.0277 37.6728 65.0301 33.2637 65.0301C27.9897 65.0301 23.7004 60.7403 23.7004 55.4659C23.7004 50.1914 27.9897 45.9016 33.2637 45.9016C35.5189 45.9016 37.6678 46.6867 39.3842 48.1189L42.5775 44.2865C39.9646 42.1059 36.6948 40.9116 33.2637 40.9116C25.2388 40.9116 18.7108 47.4402 18.7108 55.4659C18.7108 63.4915 25.2388 70.0201 33.2637 70.0201C36.8029 70.0201 40.0528 68.7493 42.5775 66.6402L44.4901 57.9609L42.5775 52.9709Z" fill="white"/>
<path d="M42.5775 52.9712V66.6405C45.7774 63.9692 47.8165 59.9522 47.8165 55.4662V52.9712H42.5775Z" fill="#F6F6F6"/>
</svg>
